<svg width="248" height="107" fill="none" xmlns="http://www.w3.org/2000/svg"><g clip-path="url(#a)" fill="#5E5E5B"><path d="M123.9 0v5.5h-7.3a7 7 0 0 0-6.2 6.2h-5.6s.4-6 5-9.1c0 0 2.7-2.2 6.4-2.5 1.9-.2 7.7 0 7.7 0ZM105 13.8h5.3s.6 6.9 10.5 6.4h15.4l.1 5.3s-22.6 1.7-26-2.2v8.3h-5.5l.2-17.8Z"/><path d="M137.2 20.1v5.6s6.1 1.5 6 7.6c0 0 0 8.6-14 7V34h-5.4v17.7h5.4l.2-6.1 9.3-.3s9.2-1.5 9.7-12c0 0 .4-12.4-11.2-13.2M105.4 2.6S102.8.4 99.1.1H98v5.4h.6a7 7 0 0 1 6.3 6.2h5.5s-.3-5.9-5-9Z"/><path d="M123.9 31.6h5.5s-1-11.2-11.7-11.5v5.3s5.7 1 6.2 6.2ZM123.9 11.7h5.4s.5-3 2-4c0 0 1.8-2.1 5-2.3V.1s-6.8-.2-10.7 6c-.7 1.3-1.6 4-1.7 5.6ZM124 13.9h5.4s.5 3 2 4c0 0 1.8 2 4.9 2.2v5.4s-6.8.1-10.6-6.1c-.8-1.3-1.7-3.9-1.7-5.5M137.2 20.1l.1 5.6s10.8-1.7 11.1-11.8H143s-.5 5.8-5.7 6.2M137.3 59.5V65s10.5-.7 11-11.8l-5.1-.1s-.6 6.4-6 6.4ZM99.5 65v-5.5s4.2 1 5.8-6.2l5.3.1S109.4 65 99.6 65ZM91.8 51h-5.6s1.2-5.1 4.7-8.6c0 0-5-3.8-4.5-8.7l5.3-.1s1.5 6 5.6 6V45s-5.5 1.8-5.5 6ZM86 13.8h5.5s.7 7 9.1 6.3c8.4-.6 9.7 10.4 9.8 11.5h-5.6s-.4-6.1-7.7-6.1c-7.2 0-11.5-9.4-11-11.7M105.3 33.6h5.3s1.2 6.7 8.3 6.5c0 0 10.6 1.3 10.6 11.6h-5.7s0-4.8-2.8-5.5l-5.6-1.1c-2.2-.6-9.7-2.4-10-11.5M124.2 53.5h5.6s-.2 10.7-12 12l-.4-5.5s6.3.1 6.8-6.5"/><path d="M105.2 51h5.6s-1.2-5.1-4.7-8.6c0 0 5-3.8 4.5-8.7l-5.3-.1s-1.5 6-5.6 6V45s5.5 1.8 5.5 6ZM123.8 53.2h6s-1 4.3 5.1 6.4V65s-9.7-.9-11-11.8ZM101.6 11.9a4 4 0 1 1-8 0 4 4 0 0 1 8 0ZM121.7 12a4 4 0 1 1-7.9.1 4 4 0 0 1 8 0ZM140.5 12.3a4 4 0 1 1-7.9 0 4 4 0 0 1 8 0ZM139.7 33a4 4 0 1 1-7.8.1 4 4 0 0 1 7.8 0ZM121.7 32.3a4 4 0 1 1-7.9 0 4 4 0 0 1 8 0ZM101.8 31.5a4 4 0 1 1-8 0 4 4 0 0 1 8 0ZM101.4 52.5a4 4 0 1 1-8 0 4 4 0 0 1 8 0ZM121 52.5a4 4 0 1 1-8 0 4 4 0 0 1 8 0ZM140.1 51.4a4 4 0 1 1-7.9 0 4 4 0 0 1 8 0ZM0 73.1h10.6v3H4.3v2.4h5.4v2.9H4.3V87H0V73.1ZM21.2 73.1h4.2v8.3a7 7 0 0 1-.3 2.3 5 5 0 0 1-1.2 2c-.6.5-1.2.9-1.8 1.1-.8.3-1.8.5-3 .5-.6 0-1.4 0-2.2-.2-.8 0-1.4-.2-2-.5a5 5 0 0 1-2.4-2.8c-.2-1-.4-1.7-.4-2.4v-8.3h4.3v8.5c0 .8.2 1.4.6 1.8.5.4 1 .6 1.8.6.7 0 1.3-.2 1.7-.6.5-.4.7-1 .7-1.8v-8.5ZM27.5 73.1h4l5.2 7.7v-7.7h4v14h-4l-5.1-7.7V87h-4V73.1ZM46.8 76.3v7.6h1c1 0 1.6-.1 2-.3.4-.2.7-.6.9-1 .2-.6.3-1.4.3-2.5 0-1.5-.2-2.5-.7-3-.5-.6-1.3-.8-2.4-.8h-1ZM42.5 73H49c1.3 0 2.3.2 3 .5a5 5 0 0 1 2 1.5c.5.6.8 1.4 1 2.2.3.9.4 1.8.4 2.7 0 1.5-.2 2.7-.5 3.5-.4.8-.8 1.5-1.4 2-.6.6-1.3 1-2 1.2L49 87h-6.4V73.1ZM63.6 81.7l-1.6-5-1.5 5h3Zm.9 3h-4.9l-.7 2.3h-4.4l5.3-13.9h4.6l5.2 14h-4.4l-.7-2.4ZM74.2 88.6l.3-1.1 1.7-.2c1 0 1.8.2 2.2.5.4.4.6.8.6 1.3 0 .3 0 .6-.3 1a2 2 0 0 1-1 .8l-1.9.2c-.7 0-1.5 0-2.5-.2v-1.2c.6.2 1.3.2 2 .2.6 0 1 0 1.2-.2.2-.1.3-.3.3-.6 0-.2-.1-.3-.3-.4-.1-.2-.4-.2-.7-.2l-1.6.1m5.3-7.3 3.7 1.2A7 7 0 0 1 82 85c-.5.7-1.2 1.3-2 1.6-.8.4-1.8.6-3 .6a9 9 0 0 1-3.8-.7c-1-.4-1.7-1.2-2.4-2.3-.7-1.1-1-2.5-1-4.3 0-2.3.5-4 1.8-5.3 1.2-1.2 3-1.8 5.1-1.8a7 7 0 0 1 4.2 1c1 .8 1.7 1.8 2.2 3.3l-3.8.9-.4-1c-.2-.3-.5-.6-.9-.7-.3-.2-.7-.3-1.2-.3-1 0-1.7.4-2.2 1.2A5 5 0 0 0 74 80c0 1.6.3 2.6.7 3.2.5.6 1.1.9 2 .9.8 0 1.4-.3 1.9-.7.4-.5.7-1.2.9-2M92.2 81.7l-1.6-5-1.5 5h3Zm.4-12H94v.4c0 .7-.2 1.2-.6 1.6-.3.4-.8.6-1.3.6-.4 0-1-.2-1.9-.5l-1-.3c-.2 0-.3 0-.4.2l-.2.6h-1.4v-.4c0-.7.1-1.2.5-1.6.4-.4.8-.6 1.3-.6h.7l1 .4 1.2.4c.2 0 .3 0 .4-.2l.2-.6m.5 15h-5l-.6 2.3h-4.4l5.3-13.9H93l5.2 14h-4.4l-.7-2.4ZM102.2 80.1c0 1.4.2 2.4.8 3 .5.7 1.2 1 2 1 1 0 1.7-.3 2.2-1 .5-.5.8-1.6.8-3.2 0-1.3-.3-2.2-.8-2.9-.5-.6-1.2-.9-2.1-.9-1 0-1.6.3-2.1 1-.5.6-.8 1.6-.8 3m-4.3 0c0-2.3.6-4 1.9-5.3 1.3-1.3 3-2 5.3-2 2.2 0 4 .7 5.3 2a7 7 0 0 1 1.9 5.2c0 1.6-.3 3-.8 4-.6 1-1.4 1.8-2.4 2.4-1 .6-2.3.9-3.9.9-1.5 0-2.8-.3-3.8-.8s-1.9-1.3-2.5-2.3a8 8 0 0 1-1-4.1M123 79h1c.9 0 1.5 0 1.8-.4.3-.3.5-.6.5-1 0-.5-.1-.9-.4-1.2-.3-.3-.9-.5-1.7-.5H123v3.2Zm-4.3-5.9h7.1c1.6 0 2.7.4 3.5 1.1.8.8 1.2 1.8 1.2 3.2 0 1.4-.5 2.5-1.3 3.3-.8.8-2.1 1.2-3.8 1.2H123V87h-4.3V73.1ZM138 81.7l-1.6-5-1.5 5h3Zm.8 3H134l-.7 2.3h-4.4l5.2-13.9h4.7l5.2 14h-4.5l-.7-2.4ZM153 73.1h4.2v8.3a7 7 0 0 1-.4 2.3 5 5 0 0 1-1.2 2c-.5.5-1 .9-1.7 1.1-.8.3-1.8.5-3 .5-.6 0-1.4 0-2.2-.2-.8 0-1.4-.2-2-.5a5 5 0 0 1-2.4-2.8c-.2-1-.4-1.7-.4-2.4v-8.3h4.3v8.5c0 .8.2 1.4.6 1.8.5.4 1 .6 1.8.6.7 0 1.3-.2 1.7-.6.4-.4.6-1 .6-1.8v-8.5ZM159.3 73.1h4.3v10.5h6.7V87h-11V73.1ZM175.5 73.1h-4.3v14h4.3V73ZM176.7 82.4l4-.2c.2.6.3 1.2.6 1.5.4.6 1 .8 1.9.8.6 0 1-.1 1.4-.4.3-.3.5-.6.5-1 0-.3-.2-.7-.5-1-.3-.2-1-.5-2.2-.8-1.8-.4-3.2-1-4-1.7a3.4 3.4 0 0 1-1.2-2.6c0-.8.2-1.4.6-2 .4-.7 1-1.2 1.9-1.6.8-.3 2-.5 3.4-.5a7 7 0 0 1 4 1c1 .6 1.5 1.7 1.7 3.1l-4 .3c-.1-.7-.4-1.1-.7-1.4-.3-.3-.8-.4-1.4-.4-.5 0-.9 0-1.2.3a1 1 0 0 0-.3.8c0 .2 0 .4.3.6l1.4.5c1.9.4 3.2.8 4 1.2a4 4 0 0 1 2.3 3.6c0 .9-.2 1.7-.7 2.5-.5.7-1.1 1.3-2 1.7-1 .4-2 .6-3.4.6-2.3 0-4-.5-4.9-1.4-.9-.9-1.4-2-1.5-3.5M189.3 73.1h13v3.5H198V87h-4.2V76.6h-4.4V73ZM209.8 81.7l-1.5-5-1.5 5h3Zm.9 3h-4.9l-.7 2.3h-4.3l5.2-13.9h4.7l5.2 14h-4.5l-.7-2.4ZM216.5 73.1h4l5.2 7.7v-7.7h4v14h-4l-5.2-7.7V87h-4V73.1ZM240 81.7l-1.5-5-1.5 5h3Zm1 3h-5l-.6 2.3H231l5.2-13.9h4.7l5.2 14h-4.5l-.7-2.4ZM3.7 103.2c1 0 1.8-.4 2.3-1 .5-.6.7-1.7.7-3.1l-.1-2L6 96a2 2 0 0 0-1-.7L4 95a5.7 5.7 0 0 0-1.1 0v8l.5.1h.4m-.4 1.1a14.4 14.4 0 0 1-1.8 0v-10a24.6 24.6 0 0 1 2.2-.3c1.5 0 2.6.4 3.3 1.2.7.9 1 2.2 1 4 0 .9 0 1.7-.2 2.3A4 4 0 0 1 7 103c-.4.4-1 .7-1.5 1l-2.2.2M10.6 94H16v1.2h-4.1v3.2h3.6v1.1H12v3.4H16v1.1h-5.5V94ZM22.2 94h5.4v1.2h-4.2v3.2h3.7v1.1h-3.7v3.4h4.3v1.1h-5.5V94ZM32.4 103.2c1 0 1.8-.4 2.2-1 .5-.6.8-1.7.8-3.1 0-.8 0-1.4-.2-2l-.5-1.2a2 2 0 0 0-.9-.7l-1.3-.2a5.7 5.7 0 0 0-1.1 0v8l.5.1h.4m-.3 1.1a14.5 14.5 0 0 1-1.9 0v-10a24.3 24.3 0 0 1 2.3-.3c1.5 0 2.6.4 3.3 1.2.6.9 1 2.2 1 4 0 .9-.1 1.7-.3 2.3a4 4 0 0 1-.8 1.6c-.4.4-.9.7-1.5 1l-2.1.2M42.6 104.2c-.6 0-1.2-.1-1.6-.3-.4-.1-.8-.4-1-.7-.3-.3-.5-.8-.7-1.3l-.1-1.8v-6h1.2v6c0 1 .2 1.8.5 2.3.4.4 1 .6 1.7.6s1.3-.2 1.6-.6c.4-.5.5-1.3.5-2.3v-6H46v6c0 .7 0 1.3-.2 1.9-.1.5-.3.9-.6 1.2-.2.3-.6.6-1 .7-.5.2-1 .3-1.6.3M52.6 104.2c-.7 0-1.3-.1-1.8-.4a3 3 0 0 1-1.3-.9 4 4 0 0 1-.8-1.6l-.2-2.2c0-1 0-1.7.2-2.4a4 4 0 0 1 .8-1.6 3 3 0 0 1 1.2-.9c.5-.2 1.2-.3 1.9-.3a9.2 9.2 0 0 1 1.6.2v1h-1.5l-1.3.1a2 2 0 0 0-1 .7 3 3 0 0 0-.4 1.2l-.2 2c0 .7 0 1.3.2 1.8 0 .5.2 1 .5 1.3.2.3.5.5.9.7l1.3.2a9.5 9.5 0 0 0 1.5-.2v1a6.2 6.2 0 0 1-1.6.3M60.9 100l-1-3.4-.4-1.5h-.1l-.4 1.5-1 3.5h2.9Zm-5.2 4 2.8-10h1.9l2.8 10H62l-.9-2.9h-3.4l-.8 3h-1.2v-.1ZM67.7 107l-1-.1v-.9a2.1 2.1 0 0 0 .9.1c.5 0 .7-.2.7-.7 0-.4-.1-.8-.4-1.3-1-.2-1.9-.7-2.4-1.5s-.8-2-.8-3.5c0-1 .1-1.7.3-2.4a4 4 0 0 1 .7-1.6 3 3 0 0 1 1.3-.9c.5-.2 1-.3 1.8-.3a9.1 9.1 0 0 1 1.6.2v1H69l-1.4.1a2 2 0 0 0-.9.7 3 3 0 0 0-.5 1.2l-.2 2c0 .7 0 1.3.2 1.8l.5 1.3 1 .7 1.2.2a9.6 9.6 0 0 0 1.5-.2v1a5.6 5.6 0 0 1-1.6.3c.2.2.3.4.3.7l.1.7c0 .4-.1.8-.4 1-.2.3-.6.4-1 .4M77 100l-.9-3.4-.4-1.5-.5 1.5-1 3.5h2.9Zm-3.5-7.3c.2-.4.4-.6.7-.8.3-.2.5-.3.8-.3h.5l.4.2.4.2.5.1c.3 0 .6-.2.8-.5l.4.3a2 2 0 0 1-.7.8c-.2.2-.5.3-.8.3h-.4l-.5-.3-.4-.2h-.4c-.4 0-.7.1-1 .5l-.3-.3ZM72 104l2.8-10h1.9l2.8 10h-1.2l-.8-2.9H74l-.9 3H72v-.1ZM84.6 103c.4 0 .8 0 1-.2.4-.1.6-.3.8-.7l.4-1.2.2-1.8c0-1.5-.2-2.5-.6-3.1-.4-.7-1-1-1.8-1s-1.4.3-1.8 1c-.4.6-.5 1.6-.5 3v1.9c.2.5.3 1 .5 1.2.2.4.4.6.7.7.3.2.7.3 1.1.3m0 1c-2.4 0-3.7-1.6-3.7-5 0-1.8.4-3 1-4 .5-.8 1.5-1.2 2.7-1.2 1.2 0 2.2.4 2.8 1.3.6.8.9 2.1.9 3.9 0 3.4-1.2 5-3.7 5M90 106l.5-3.4h1.3l-1 3.5-.9-.1ZM99.5 95.2H97V94h6.2v1h-2.4v9h-1.3v-9ZM105.4 94h5.4v1.2h-4.1v3.2h3.7v1.1h-3.7v3.4h4.2v1.1h-5.5V94ZM117 104.2c-.7 0-1.3-.1-1.9-.4a3 3 0 0 1-1.2-.9 4 4 0 0 1-.8-1.6l-.2-2.2c0-1 0-1.7.2-2.4a4 4 0 0 1 .8-1.6 3 3 0 0 1 1.2-.9c.5-.2 1.1-.3 1.8-.3a9.2 9.2 0 0 1 1.6.2v1h-1.4l-1.3.1a2 2 0 0 0-1 .7 3 3 0 0 0-.4 1.2c-.2.6-.2 1.2-.2 2 0 .7 0 1.3.2 1.8 0 .5.2 1 .5 1.3.2.3.5.5.9.7l1.3.2a9.6 9.6 0 0 0 1.4-.2v1a6.2 6.2 0 0 1-1.5.3M121 94h1.1l4 6.7.6 1v-7.6h1.2v10h-1.1l-4-6.7-.6-1.1h-.1v7.7H121V94ZM134.1 103c.5 0 .8 0 1.1-.2.3-.1.6-.3.8-.7l.4-1.2.1-1.8c0-1.5-.2-2.5-.6-3.1-.3-.7-1-1-1.8-1s-1.4.3-1.8 1a10.6 10.6 0 0 0-.4 5l.4 1.1c.2.4.5.6.8.7.3.2.6.3 1 .3Zm0 1.2c-2.4 0-3.6-1.7-3.6-5.1 0-1.8.3-3 .9-4 .6-.8 1.5-1.2 2.7-1.2 1.3 0 2.2.4 2.8 1.3.6.8 1 2.1 1 3.9 0 3.4-1.3 5-3.8 5M140.4 94h1.2v9h3.3v1h-4.5V94ZM150 103c.4 0 .8 0 1-.2.4-.1.6-.3.8-.7l.4-1.2.1-1.8c0-1.5-.1-2.5-.5-3.1-.4-.7-1-1-1.8-1s-1.4.3-1.8 1c-.4.6-.6 1.6-.6 3 0 .8 0 1.4.2 1.9 0 .5.2 1 .4 1.2.2.4.4.6.7.7.3.2.7.3 1 .3m0 1c-2.4 0-3.6-1.6-3.6-5 0-1.8.3-3 1-4 .5-.8 1.4-1.2 2.7-1.2 1.2 0 2.1.4 2.7 1.3.7.8 1 2.1 1 3.9 0 3.4-1.3 5-3.7 5ZM159.9 104.2c-1.4 0-2.5-.5-3.1-1.3-.7-.8-1-2-1-3.8 0-1 0-1.7.3-2.4a4 4 0 0 1 .7-1.5c.4-.5.8-.8 1.4-1 .5-.2 1.2-.3 2-.3a8 8 0 0 1 1.9.3v1a13 13 0 0 0-1.8-.2c-.6 0-1.1 0-1.5.2l-1 .7a3 3 0 0 0-.5 1.3L157 99c0 .7 0 1.3.2 1.8 0 .5.3 1 .5 1.2.2.4.5.6.9.7.4.2.8.3 1.3.3a7.9 7.9 0 0 0 1-.1v-4h1.1v5a19.4 19.4 0 0 1-2.2.2M166 94h-1.2v10h1.3V94ZM173.3 100l-1-3.4-.3-1.5h-.1l-.4 1.5-1 3.5h2.8Zm-5.1 4 2.8-10h1.8l2.9 10h-1.3l-.8-2.9h-3.4l-.8 3h-1.2v-.1ZM181 94h5.4v1.2h-4v3.2h3.6v1.1h-3.7v3.4h4.3v1.1H181V94ZM196.3 104.2c-.7 0-1.3-.1-1.8-.4a3 3 0 0 1-1.3-.9 4 4 0 0 1-.7-1.6 9.9 9.9 0 0 1 0-4.6 4 4 0 0 1 .7-1.6 3 3 0 0 1 1.3-.9c.5-.2 1.1-.3 1.8-.3a9.2 9.2 0 0 1 1.6.2v1h-1.4l-1.4.1a2 2 0 0 0-.9.7 3 3 0 0 0-.5 1.2l-.1 2 .1 1.8.5 1.3 1 .7 1.3.2a9.6 9.6 0 0 0 1.4-.2v1a6.1 6.1 0 0 1-1.6.3M203.7 104.2c-.6 0-1.2-.1-1.6-.3-.4-.1-.8-.4-1-.7-.3-.3-.5-.8-.7-1.3l-.1-1.8v-6h1.2v6c0 1 .2 1.8.5 2.3.4.4 1 .6 1.7.6s1.3-.2 1.6-.6c.4-.5.5-1.3.5-2.3v-6h1.3v6c0 .7 0 1.3-.2 1.9-.1.5-.3.9-.6 1.2-.2.3-.6.6-1 .7-.5.2-1 .3-1.6.3M210 94h1.3v9h3.2v1H210V94ZM217.3 95.2h-2.5V94h6.2v1h-2.4v9h-1.3v-9ZM226.6 104.2c-.6 0-1.2-.1-1.6-.3-.4-.1-.8-.4-1-.7-.3-.3-.5-.8-.7-1.3l-.2-1.8v-6h1.3v6c0 1 .2 1.8.5 2.3.4.4 1 .6 1.7.6s1.3-.2 1.6-.6c.4-.5.5-1.3.5-2.3v-6h1.3v6c0 .7 0 1.3-.2 1.9-.1.5-.3.9-.6 1.2-.3.3-.6.6-1 .7-.5.2-1 .3-1.6.3M235.2 99.4c.8 0 1.4-.2 1.8-.5.4-.4.5-1 .5-1.7 0-.8-.1-1.4-.5-1.7-.3-.3-1-.5-1.7-.5a6 6 0 0 0-1.2 0v4.3a7.1 7.1 0 0 0 1 0m.9 1a8 8 0 0 1-.9.1h-.5a5 5 0 0 1-.5 0v3.6H233v-9.9a11.2 11.2 0 0 1 2.2-.2c1.3 0 2.2.3 2.8.8.6.5 1 1.3 1 2.5 0 .8-.2 1.4-.5 1.9-.3.4-.7.8-1.3 1l2 4h-1.4l-1.7-3.7ZM243.8 96.6l.4-1.5h.1l.4 1.5 1 3.5h-2.9l1-3.5Zm-.5-2.5-2.8 9.9h1.2l.9-2.9h3.3l.9 3h1.2v-.1l-2.8-10h-1.9Z"/></g><defs><clipPath id="a"><path fill="#fff" d="M0 0h248v107H0z"/></clipPath></defs></svg>