<svg width="195" height="104" fill="none" xmlns="http://www.w3.org/2000/svg"><path d="M39.2 64.52c1.29 1.32 2.6 2.52 3.66 3.97a20.28 20.28 0 0 1-1.76 26.3c-1.85 1.9-3.6 3.92-5.84 5.43-7.01 4.7-16.44 4.5-23.22-.5-1.08-.8-1.43-1.82-1-2.89.58-1.38 2.21-1.78 3.52-.83a15.49 15.49 0 0 0 7.15 2.95c5.5.72 10.12-1.07 13.97-4.99.8-.81 1.58-1.64 2.36-2.47a15.86 15.86 0 0 0-.33-22.07c-6.52-6.56-13.02-13.13-19.52-19.69-4.28-4.32-8.65-8.55-12.8-13A20.18 20.18 0 0 1 5.84 8.9c1.5-1.54 2.91-3.17 4.6-4.51 7.88-6.26 19.7-5.72 26.63 1.44 6.8 7.02 13.6 14.05 20.38 21.11 1.03 1.09 2.09 2.15 3.13 3.23 1 1.02 1.06 2.35.16 3.24-.89.88-2.23.81-3.23-.22-2.7-2.77-5.4-5.57-8.12-8.34-.7-.73-1.06-.72-1.8 0l-9.47 9.2c-.66.64-.69 1.01-.04 1.68l8.16 8.43c1.3 1.34.84 3.3-.87 3.73-.83.2-1.51-.07-2.1-.68l-8.28-8.52-9.28-9.6-2.1-2.18c-.84-.92-.84-2.15-.01-3 .86-.86 2.15-.89 3.05.03 2.29 2.32 4.54 4.68 6.81 7.01l.26.29c.78.8 1.07.82 1.85.06a1470.9 1470.9 0 0 0 9.58-9.3c.61-.62.61-.96.01-1.57a826 826 0 0 0-11.08-11.3A15.69 15.69 0 0 0 12.1 8.9c-1.78 1.72-3.6 3.43-4.96 5.53A15.92 15.92 0 0 0 9.1 34.09C15.63 40.7 22.2 47.27 28.7 53.9c2.01 2.05 4.08 4 6.83 4.98 6.3 2.25 12.05 1.2 16.83-3.48 7.19-7.05 14.21-14.27 21.28-21.44 5.89-5.98 5.79-15.9-.18-22.02-1.17-1.2-2.27-2.49-3.57-3.57a15.66 15.66 0 0 0-19.63-.73c-.93.67-1.93.73-2.75.18a2.26 2.26 0 0 1-.06-3.7A19.83 19.83 0 0 1 61.81.18c5.65.57 10.07 3.38 13.83 7.5 2.2 2.4 4.33 4.82 5.44 7.93 2.84 8.01 1.57 15.33-4.3 21.5-6.74 7.08-13.73 13.93-20.61 20.88-4.48 4.52-9.87 6.77-16.27 6.43-.2 0-.4-.09-.7.1ZM100.73 23.74V0h3v10.19h11.7V0h3v23.74h-3V12.98h-11.7v10.76h-3ZM130.63 24a8.41 8.41 0 0 1-3.45-.66 6.6 6.6 0 0 1-2.45-1.85 8.43 8.43 0 0 1-1.47-2.74 11.64 11.64 0 0 1-.02-6.6c.32-1.06.8-2 1.42-2.81a6.74 6.74 0 0 1 5.7-2.66c1.26 0 2.4.22 3.34.66.94.44 1.71 1.05 2.32 1.83a8.1 8.1 0 0 1 1.34 2.58c.3.96.44 1.95.44 2.97l-.02.62c0 .33-.03.62-.09.87h-12.08c.08 1.64.55 2.91 1.44 3.81a4.8 4.8 0 0 0 3.6 1.36c.97 0 1.82-.16 2.54-.47.73-.31 1.4-.83 2.04-1.53l2 1.77a9.2 9.2 0 0 1-1.93 1.62c-.68.42-1.4.74-2.17.94-.76.2-1.6.3-2.53.3h.03Zm4.32-9.25a3.98 3.98 0 0 0 .1-1.09 5.01 5.01 0 0 0-1.13-3.12c-.38-.44-.85-.8-1.43-1.06a4.98 4.98 0 0 0-2.06-.4 4.54 4.54 0 0 0-4.15 2.5 6.5 6.5 0 0 0-.68 2.48h10.3l-.95.68v.01ZM147.4 24a7.77 7.77 0 0 1-3.31-.66 5.18 5.18 0 0 1-2.19-1.85 5 5 0 0 1-.77-2.76c0-.93.2-1.71.57-2.36a4.2 4.2 0 0 1 1.45-1.51 5.52 5.52 0 0 1 2.02-.8c.76-.14 1.55-.22 2.4-.22H153v2.18h-5.04c-.5 0-1.02.05-1.56.14-.55.09-1.02.28-1.43.58-.3.22-.53.5-.7.85-.17.34-.26.73-.26 1.19 0 .89.33 1.6.98 2.11.67.52 1.54.79 2.66.79a5.05 5.05 0 0 0 4.36-2.44c.47-.76.7-1.62.7-2.56l1.19 1.22a7.46 7.46 0 0 1-1.1 3.2 6.24 6.24 0 0 1-2.25 2.17c-.92.51-1.98.77-3.19.77l.03-.03Zm5.54-.26-.2-3.38v-7.15c0-1.3-.36-2.29-1.07-3-.72-.7-1.78-1.05-3.19-1.05-.9 0-1.76.18-2.54.56-.8.38-1.57 1-2.32 1.89l-2.07-1.77c.92-1.1 1.99-1.9 3.2-2.4a10 10 0 0 1 3.94-.77c2.2 0 3.9.56 5.1 1.7 1.2 1.14 1.8 2.75 1.8 4.83v10.53h-2.65ZM163.66 24a3.33 3.33 0 0 1-2.48-.95c-.64-.64-.96-1.65-.96-3.04V0h2.86v19.48c0 .66.14 1.13.41 1.43.27.3.64.44 1.1.44a6.1 6.1 0 0 0 1.47-.28v2.45a6.07 6.07 0 0 1-2.39.48ZM166.85 9.2V6.94h10.28v2.24h-10.28Zm7.7 14.8c-.8 0-1.52-.15-2.17-.45-.64-.3-1.15-.8-1.51-1.49a5.52 5.52 0 0 1-.55-2.62V2.45l2.93-1.64V18.7c0 .93.14 1.65.44 2.16.29.52.83.77 1.6.77.22 0 .5-.02.8-.08.32-.06.67-.14 1.03-.23v2.25a6.83 6.83 0 0 1-2.59.44h.01ZM180.74 23.74V0h2.89v10.53l-.72.27a6.5 6.5 0 0 1 1.33-2.22 5.86 5.86 0 0 1 4.52-1.9c1.83 0 3.28.53 4.32 1.62 1.04 1.08 1.56 2.67 1.56 4.79v10.66h-2.89v-9.6c0-1.7-.3-2.96-.94-3.77-.62-.8-1.57-1.2-2.84-1.2-1.38 0-2.46.49-3.22 1.48-.76.99-1.13 2.56-1.13 4.72v8.38h-2.89v-.02ZM107.87 55.86c-2.2 0-3.95-.4-5.23-1.21a3.78 3.78 0 0 1-1.93-3.37c0-.1 0-.24.02-.4 0-.17.03-.32.08-.47l3.82-2.77.9.62-2.18 2.72a1 1 0 0 0-.02.21v.19c0 .83.44 1.45 1.3 1.85.87.4 1.95.61 3.24.61a7.2 7.2 0 0 0 2.83-.48c.75-.32 1.12-.85 1.12-1.58 0-.4-.12-.75-.36-1a2.35 2.35 0 0 0-1.03-.62c-.44-.14-.96-.27-1.57-.37-.6-.11-1.28-.21-2.02-.32-.93-.14-1.84-.35-2.72-.62a5.6 5.6 0 0 1-2.18-1.19 2.65 2.65 0 0 1-.86-2.05c0-.73.25-1.4.76-2 .51-.6 1.18-1.1 2-1.5l1.69 1.1c-.71.17-1.21.42-1.5.76-.3.34-.44.75-.44 1.22 0 .4.15.72.42.97.28.25.7.44 1.22.57.53.14 1.17.25 1.91.36 1 .15 1.94.3 2.8.47.87.17 1.65.4 2.32.7.67.3 1.2.7 1.57 1.21.38.51.56 1.18.56 1.98 0 1.42-.58 2.5-1.74 3.26-1.16.76-2.76 1.14-4.8 1.14l.02.01Zm-.38-11.43a6.92 6.92 0 0 1-3.13-.69 5.09 5.09 0 0 1-2.89-4.67 5.22 5.22 0 0 1 2.94-4.76c.9-.46 1.9-.69 3-.69s2.07.23 2.96.69a5.29 5.29 0 0 1 2.95 4.86 5 5 0 0 1-2.8 4.61c-.87.44-1.88.65-3.03.65Zm-.06-2.14a3.08 3.08 0 0 0 3.27-3.27c0-.98-.3-1.77-.9-2.37a3.2 3.2 0 0 0-2.36-.9c-.98 0-1.8.3-2.42.92a3.1 3.1 0 0 0-.93 2.32c0 .93.3 1.72.9 2.36.6.63 1.42.94 2.46.94h-.02Zm4.88-5.55-1.9-1.28 3.24-2.67 1.34 1.65-2.67 2.3ZM123.85 49.48c-1.2 0-2.25-.2-3.15-.6-.9-.41-1.65-.97-2.25-1.7a7.68 7.68 0 0 1-1.34-2.51 10.34 10.34 0 0 1 0-6.04c.28-.97.72-1.83 1.28-2.57a5.98 5.98 0 0 1 2.16-1.78 6.68 6.68 0 0 1 3.05-.65c1.17 0 2.2.2 3.07.6.86.41 1.56.97 2.12 1.67.54.71.96 1.5 1.22 2.37.27.86.4 1.77.4 2.7l-.01.58c-.01.3-.04.57-.08.8h-11.04c.06 1.5.5 2.66 1.3 3.49.8.83 1.9 1.24 3.3 1.24.9 0 1.67-.14 2.33-.44a5.5 5.5 0 0 0 1.87-1.4l1.83 1.62a8.9 8.9 0 0 1-1.77 1.48c-.62.38-1.27.67-1.97.86a8.9 8.9 0 0 1-2.32.27v.01Zm3.96-8.47c.04-.17.07-.34.08-.5l.01-.5a4.4 4.4 0 0 0-1.04-2.85 3.7 3.7 0 0 0-1.3-.97 4.5 4.5 0 0 0-1.9-.36 4.12 4.12 0 0 0-3.8 2.27 5.97 5.97 0 0 0-.62 2.28h9.42l-.86.63ZM139.26 49.48a7.87 7.87 0 0 1-2.8-.46 6.8 6.8 0 0 1-3.54-2.9l1.83-1.55a4.97 4.97 0 0 0 4.54 2.71c.98 0 1.75-.2 2.34-.63.58-.4.86-.97.86-1.68a1.8 1.8 0 0 0-.52-1.37c-.35-.33-.83-.6-1.4-.8-.59-.21-1.22-.4-1.9-.57-.58-.14-1.17-.32-1.76-.53a7.2 7.2 0 0 1-1.6-.78 3.67 3.67 0 0 1-1.16-1.21c-.3-.5-.44-1.11-.44-1.84 0-1.27.5-2.29 1.48-3.07a6.07 6.07 0 0 1 3.87-1.17c1.16 0 2.23.24 3.2.73.96.5 1.7 1.22 2.25 2.2l-1.69 1.24a3.7 3.7 0 0 0-1.63-1.57 5.08 5.08 0 0 0-2.23-.49c-.81 0-1.48.17-2.02.5-.53.33-.8.8-.8 1.37 0 .44.12.79.37 1.06s.62.5 1.11.69c.48.19 1.08.37 1.79.53.64.14 1.3.32 1.96.52.66.21 1.28.48 1.83.81.56.33 1.01.77 1.35 1.32.34.56.5 1.27.5 2.13 0 .96-.23 1.8-.7 2.53a4.64 4.64 0 0 1-2.03 1.68c-.86.4-1.9.6-3.08.6h.02ZM146.88 35.93v-2.06h9.4v2.06h-9.4Zm7.03 13.55a4.6 4.6 0 0 1-1.98-.42 3.02 3.02 0 0 1-1.38-1.35 5.12 5.12 0 0 1-.5-2.4V29.76l2.67-1.5v16.36c0 .85.13 1.51.4 1.98.27.46.76.7 1.47.7.2 0 .45-.03.75-.08l.93-.2v2.05a6.38 6.38 0 0 1-2.37.4l.01.01ZM164.58 49.48c-1.16 0-2.17-.2-3.03-.6a4.6 4.6 0 0 1-1.99-1.7 4.57 4.57 0 0 1-.7-2.53c0-.85.17-1.58.51-2.17.34-.59.79-1.05 1.32-1.39.54-.34 1.16-.6 1.86-.73.7-.13 1.43-.2 2.19-.2h4.98v2h-4.6c-.46 0-.94.04-1.44.12-.5.08-.93.26-1.3.52-.27.21-.49.47-.64.78-.15.32-.23.67-.23 1.1 0 .8.3 1.45.9 1.93.6.47 1.41.71 2.43.71a4.6 4.6 0 0 0 4.63-4.58l1.09 1.12a6.86 6.86 0 0 1-1 2.93 5.67 5.67 0 0 1-2.06 1.98c-.84.46-1.8.7-2.9.7l-.02.01Zm5.07-.25-.18-3.09V39.6c0-1.18-.34-2.1-.99-2.74-.65-.64-1.63-.97-2.9-.97a5.42 5.42 0 0 0-4.46 2.24l-1.9-1.62c.86-1 1.83-1.73 2.93-2.2 1.1-.46 2.3-.69 3.61-.69 2.02 0 3.57.52 4.67 1.56s1.65 2.51 1.65 4.42v9.62h-2.43v.01Zm-1.74-17.66c-.63 0-1.13-.12-1.51-.38-.39-.25-.7-.53-.97-.86a7.67 7.67 0 0 0-.77-.87 1.3 1.3 0 0 0-.95-.38c-.4 0-.72.2-.97.61-.25.4-.37.97-.37 1.7h-1.56c0-1.27.27-2.25.8-2.94a2.64 2.64 0 0 1 2.21-1.05c.57 0 1.02.13 1.39.38.37.26.68.56.95.89.27.33.53.63.8.89s.6.38.97.38c.35 0 .65-.21.9-.65.25-.44.38-1.03.38-1.77h1.61c0 1.27-.26 2.25-.8 2.97a2.52 2.52 0 0 1-2.12 1.07l.01.01ZM183.13 49.48a7.1 7.1 0 0 1-6.5-3.83 8.6 8.6 0 0 1-.98-4.1c0-1.54.31-2.9.95-4.1a7.01 7.01 0 0 1 2.65-2.8 7.43 7.43 0 0 1 3.87-1.02 7.3 7.3 0 0 1 3.84 1.01 7.22 7.22 0 0 1 2.63 2.8c.64 1.2.97 2.56.97 4.1 0 1.54-.33 2.9-.97 4.1a7.15 7.15 0 0 1-6.47 3.85Zm0-2.33c.97 0 1.82-.24 2.53-.7a4.6 4.6 0 0 0 1.67-1.96c.4-.84.59-1.83.59-2.95s-.2-2.13-.6-2.97a4.57 4.57 0 0 0-1.66-1.95 4.63 4.63 0 0 0-2.53-.69c-.98 0-1.86.23-2.59.7a4.6 4.6 0 0 0-1.68 1.95c-.4.83-.59 1.82-.59 2.96 0 1.15.2 2.1.6 2.95.38.84.95 1.5 1.67 1.96.73.46 1.59.7 2.59.7ZM100.68 71v-8.54h1.47v2.2h-.29c.1-.4.24-.75.42-1.04a2.64 2.64 0 0 1 2.32-1.3c.52 0 .97.1 1.36.3.4.2.72.5.97.9s.43.9.52 1.51l-.83.05c.17-.59.39-1.09.66-1.5.27-.41.6-.73.99-.94a3 3 0 0 1 1.43-.32c.7 0 1.27.16 1.7.47.43.32.74.75.94 1.26.2.53.3 1.11.3 1.75V71h-1.46v-4.85c0-.53-.07-.99-.18-1.37a1.8 1.8 0 0 0-.58-.89c-.25-.2-.6-.31-1.04-.31-.41 0-.77.1-1.06.31-.3.2-.52.52-.68.95-.16.42-.24.95-.24 1.57V71h-1.47v-4.98a3.1 3.1 0 0 0-.45-1.83c-.3-.4-.74-.61-1.31-.61-.41 0-.77.1-1.08.32-.3.22-.52.53-.68.95-.16.41-.25.94-.25 1.56V71h-1.48ZM118.61 71.14c-.67 0-1.25-.11-1.76-.34a3.2 3.2 0 0 1-1.24-.95c-.33-.4-.58-.86-.74-1.4a5.86 5.86 0 0 1 0-3.37c.15-.52.4-1 .7-1.42.32-.41.72-.74 1.21-.98a3.74 3.74 0 0 1 1.7-.37c.65 0 1.22.12 1.7.34.49.22.88.54 1.19.93.3.4.53.83.68 1.32.15.48.22.98.22 1.5v.32c0 .17-.02.31-.04.44h-6.15c.04.83.28 1.48.73 1.94.44.47 1.06.7 1.83.7.5 0 .93-.09 1.3-.25.36-.16.71-.42 1.03-.78l1.02.9c-.3.34-.64.61-.98.83-.35.21-.72.38-1.1.47-.38.11-.81.16-1.29.16v.01Zm2.2-4.71c.03-.1.04-.2.05-.28v-.28a2.4 2.4 0 0 0-.57-1.58c-.2-.23-.43-.4-.73-.54-.3-.13-.64-.2-1.04-.2a2.28 2.28 0 0 0-2.11 1.27c-.2.39-.32.81-.35 1.27h5.25l-.49.35v-.01Zm-2.87-5.06 1.89-2.44h1.57l-2.37 2.44h-1.09ZM127.84 71.14a3.65 3.65 0 0 1-3.4-2.16 5.15 5.15 0 0 1-.48-2.26c0-.9.17-1.68.52-2.33a3.7 3.7 0 0 1 4.82-1.74 3.2 3.2 0 0 1 1.7 2.1l-.41.27v-6.09h1.45v12.09h-1.45v-2.55l.48.15c-.15.5-.38.94-.68 1.31a3.19 3.19 0 0 1-2.55 1.22Zm.24-1.35a2.43 2.43 0 0 0 2.29-1.48c.22-.46.33-.99.33-1.59 0-.6-.1-1.14-.33-1.6a2.43 2.43 0 0 0-2.29-1.48 2.48 2.48 0 0 0-2.31 1.49c-.23.46-.34 1-.34 1.6 0 .6.11 1.13.34 1.58a2.48 2.48 0 0 0 2.32 1.48ZM134.37 60.92v-2h1.73v2h-1.73Zm.14 10.09v-8.55h1.46v8.55h-1.46ZM141.98 71.14a3.9 3.9 0 0 1-1.69-.35c-.49-.23-.9-.55-1.23-.95a4.3 4.3 0 0 1-.76-1.42 5.55 5.55 0 0 1 0-3.38c.17-.53.43-1 .76-1.42.33-.4.75-.73 1.23-.95a3.9 3.9 0 0 1 1.7-.35c.8 0 1.5.2 2.11.59.61.4 1.06 1 1.34 1.8l-1.3.5a2.59 2.59 0 0 0-.77-1.18c-.36-.3-.82-.45-1.39-.45-.56 0-1.03.15-1.4.45-.37.3-.64.69-.82 1.16a4.34 4.34 0 0 0 0 3.05c.18.49.45.87.82 1.17.37.3.84.44 1.4.44a2.1 2.1 0 0 0 1.39-.44c.36-.3.62-.7.78-1.2l1.3.5a3.45 3.45 0 0 1-3.47 2.42v.01ZM150.2 71.14c-.65 0-1.22-.11-1.7-.34a2.52 2.52 0 0 1-1.5-2.35c0-.48.1-.88.28-1.2.2-.34.44-.6.74-.78a3 3 0 0 1 1.03-.41c.38-.07.8-.12 1.22-.12h2.77v1.11h-2.56c-.25 0-.52.03-.8.07-.28.05-.52.15-.72.3-.16.12-.27.26-.36.43a1.3 1.3 0 0 0-.13.6c0 .46.16.81.5 1.08.33.27.78.4 1.35.4a2.61 2.61 0 0 0 2.23-1.24c.22-.38.35-.82.35-1.3l.6.62a3.8 3.8 0 0 1-.55 1.63 3.16 3.16 0 0 1-2.77 1.5h.01Zm2.82-.13-.11-1.72v-3.64c0-.67-.18-1.17-.55-1.52-.36-.36-.9-.54-1.62-.54-.46 0-.89.1-1.3.28-.4.2-.79.52-1.17.96l-1.06-.9a4.52 4.52 0 0 1 3.64-1.62c1.12 0 1.99.28 2.6.87.6.58.92 1.4.92 2.46v5.35h-1.35v.02Z" fill="#5E5E5B"/></svg>