<svg width="269" height="76" fill="none" xmlns="http://www.w3.org/2000/svg"><g clip-path="url(#a)" fill="#5E5E5B"><path d="M74.54 26.29H6.7v4.86h67.83v-4.86ZM148.86 26.29H81.02v4.86h67.84v-4.86ZM234.92 30.48c.55-.53.6-.96.74-1.35l9.27-26.34c.09-.26.22-.5.27-.76.17-.94.76-1.12 1.62-1.1 3 .03 6 .05 8.98-.01.93-.02 1.32.33 1.6 1.16 1.51 4.41 3.06 8.8 4.6 13.19l5.3 14.99.36 1.06c.22.64-.06.9-.68.88h-.33c-2.5 0-5.02-.05-7.53.02-.95.03-1.33-.38-1.56-1.2-.29-1.04-.7-2.03-1-3.06-.16-.55-.44-.77-1.02-.77-2.94.02-5.88.02-8.82 0-.58 0-.87.24-1.03.76-.35 1.06-.77 2.11-1.05 3.2-.21.84-.67 1.08-1.5 1.06-2.29-.04-4.59-.01-6.89-.01h-22.6c-.44 0-.87-.02-1.3 0-.6.02-.88-.25-.85-.87.02-.32 0-.64 0-.96V2.72c0-1.8-.2-1.78 1.7-1.78h20.69c.74-.06 1.06.24 1.04 1.02a155.9 155.9 0 0 0 0 6.26c.03.84-.36.98-1.06.97-3.42-.02-6.84 0-10.27 0-.47 0-.96.03-1.44-.01-.73-.06-1.13.19-1.03.98.02.1 0 .22 0 .32.03 2.23-.17 1.9 1.85 1.92 2.78.02 5.56.03 8.34-.01.83-.01 1.12.27 1.1 1.1a137.1 137.1 0 0 0 0 5.95c.01.77-.26 1.02-1.02 1.01-2.94-.03-5.88-.01-8.82 0-1.43 0-1.45.01-1.44 1.36 0 2.5-.25 2.13 2.12 2.14 3.47.02 6.94 0 10.42.01 1.21 0 1.23.03 1.24 1.26v5.25Zm16.37-18.19h-.33l-2.4 7.21c1.82-.09 3.39.1 5.1-.14l-2.37-7.07ZM182.3 16.62V2.48c0-1.52.02-1.56 1.47-1.54 4.43.07 8.87-.23 13.3.19 7.98.75 13.14 6.2 13.53 14.25.1 1.94 0 3.86-.48 5.74-1.49 5.83-5.3 9.22-11.07 10.56-1.57.36-3.17.48-4.77.5-3.52.05-7.05.02-10.57.01-1.39 0-1.4-.02-1.4-1.44V16.61Zm9.63-.05c0 2.15.02 4.29 0 6.43 0 .65.18 1 .9.96 1.01-.05 2.02.03 3.03-.16a5.66 5.66 0 0 0 4.62-4.17c.62-2.05.62-4.12 0-6.17-.78-2.52-2.54-3.89-5.1-4.24-.59-.07-1.18-.04-1.77-.03-1.73.01-1.68-.23-1.68 1.6v5.78ZM94.59 49.66c-.45.72-.29 1.32-.29 1.89v20.09c0 .37-.04.75 0 1.12.07.86-.33 1.1-1.14 1.07-1.5-.04-2.99-.04-4.48 0-.79.03-1.08-.27-1-1.02.03-.27 0-.54 0-.8V40.35c0-.32.02-.65 0-.97-.03-.63.3-.84.89-.83 1.7.01 3.42.04 5.13-.02.88-.03 1.18.59 1.58 1.15l10.4 14.86 5.2 7.45c.51-.5.3-1.05.3-1.52.02-6.65.01-13.3.01-19.93 0-.38.02-.75 0-1.13-.03-.62.28-.86.87-.86 1.66 0 3.31.01 4.97 0 .63 0 .84.33.81.91v32.79c0 1.64.12 1.57-1.56 1.57-1.12 0-2.25-.08-3.36.03-1.07.1-1.63-.37-2.2-1.2-4.95-7.12-9.94-14.2-14.91-21.3l-1.23-1.7ZM196.9 56.22a18 18 0 0 1-18.22 18.2 18.05 18.05 0 0 1-18.14-18.32 18 18 0 0 1 18.25-18.17 17.96 17.96 0 0 1 18.1 18.29Zm-6.82-.08c0-5.93-4.32-10.94-9.89-11.62a11.41 11.41 0 0 0-12.5 8.89c-1.4 6.04 1.96 12.12 7.64 13.97 7.32 2.38 14.76-3.29 14.75-11.24ZM76.91 56.22a18 18 0 0 1-18.22 18.2A18.05 18.05 0 0 1 40.56 56.1a18 18 0 0 1 18.25-18.17 17.96 17.96 0 0 1 18.1 18.29Zm-6.81-.09c-.01-5.93-4.33-10.94-9.9-11.62a11.4 11.4 0 0 0-12.5 8.9c-1.39 6.06 1.97 12.13 7.66 13.97 7.32 2.37 14.75-3.3 14.74-11.25ZM234.79 73.82c-2.3 0-4.53-.02-6.76.01-.72.01-.87-.48-1.1-.96l-4.17-9.03c-.18-.38-.4-.76-.54-1.16-.21-.6-.62-.77-1.23-.77-1.87.04-3.74 0-5.61.03-1.12 0-1.14.03-1.16 1.19-.02 1.66 0 3.32 0 4.98v4.5c-.02 1.18-.04 1.2-1.28 1.2-1.5.02-2.99-.02-4.48.02-.78.02-1.08-.28-1-1.03.03-.37 0-.75 0-1.12V39.39c-.02-.62.3-.85.88-.84h13.14c1.83 0 3.63.16 5.35.81 4.13 1.57 6.54 4.58 7.11 8.92.63 4.7-.61 8.73-4.83 11.39-.83.52-.54.99-.24 1.59l5.34 10.95c.23.47.54.92.58 1.6Zm-20.57-23.6v4.83c0 .56.16.94.8.93 2.51-.04 5.04.22 7.53-.13 3-.4 4.82-2.78 4.7-5.9-.13-2.9-2.11-5-5.1-5.17-2.3-.13-4.6-.04-6.9-.08-.73-.01-1.06.25-1.04 1.03.04 1.5.01 3 .01 4.5ZM.75 54.71c.24-6.23 3.52-12.1 10.37-15.45 6.84-3.35 13.57-2.66 19.86 1.73.22.15.4.35.63.49.74.45.67.92.17 1.55-1.03 1.3-1.98 2.66-2.99 3.98-.77 1.02-1.15 1.08-2.26.35a12.83 12.83 0 0 0-5.62-2.17c-5.86-.7-10.37 3.38-11.6 8.03-1.57 5.94 1.8 12.07 7.6 13.65 2.75.75 5.4.41 7.93-.9.66-.35 1.27-.8 1.9-1.19.96-.6 1.35-.55 2.02.34 1 1.33 1.96 2.68 2.92 4.03.71 1 .72 1.03-.21 1.77A18.49 18.49 0 0 1 17.69 75C7.88 74 .72 65.97.75 54.7ZM130.46 56.29V40.53l.02-1.28c0-.47.26-.67.7-.69l.96-.02H153.47c.5 0 .82.2.82.75v4.66c0 .45-.25.68-.7.68l-1.12.02h-13.95c-1.25.03-1.28.04-1.3 1.26-.01 1.98-.02 3.96.01 5.94.02.9-.38 2.01.22 2.65.66.7 1.82.26 2.75.27 3 .04 5.99 0 8.98.02 1.34 0 1.35.02 1.37 1.3.01 1.13-.04 2.25.02 3.38.03.85-.33 1.1-1.13 1.1-3.16-.03-6.31-.01-9.47-.01h-1.44c-1.28.03-1.3.03-1.3 1.38-.02 3.21 0 6.43-.01 9.64-.02 2.62.3 2.2-2.19 2.23-.9.02-1.81.01-2.72 0-2 0-1.84.2-1.85-1.77V56.28ZM258.45 59.38v13.18c0 1.23-.03 1.25-1.22 1.26h-4.65c-.6.01-.9-.2-.87-.83.03-.42 0-.85 0-1.28V46.63c0-1.96.12-1.74-1.7-1.75h-7.22c-1.36 0-1.37-.02-1.38-1.44 0-1.34.02-2.68 0-4.02 0-.61.25-.88.86-.87h25.18c1.35.03 1.37.03 1.38 1.31.03 1.34-.02 2.68.02 4.02.02.77-.27 1.02-1.03 1.01-2.51-.03-5.02 0-7.54 0h-1.12c-.46-.01-.7.2-.7.66V59.38ZM180.19 16.74v13.82c0 1.63-.01 1.63-1.69 1.64h-6.57c-1.47 0-1.49-.02-1.49-1.51V5.3c0-1.07-.02-2.14 0-3.21.03-1.12.04-1.15 1.2-1.15 2.4-.02 4.8-.02 7.21 0 1.3 0 1.33.02 1.33 1.34v14.46ZM17.1 22.37a8.77 8.77 0 0 1-8.85-8.88 8.8 8.8 0 0 1 8.95-8.97 8.79 8.79 0 0 1 8.85 8.91 8.78 8.78 0 0 1-8.96 8.94Zm.08-.64a8.2 8.2 0 0 0 8.24-8.26 8.2 8.2 0 0 0-8.23-8.28 8.2 8.2 0 0 0-8.32 8.35 8.2 8.2 0 0 0 8.3 8.19h.01ZM125.68 5.19c-.66.43-1.2.31-1.7.31-2.72.02-5.44 0-8.16.02-1.38 0-1.4.02-1.4 1.45-.02 1.6.03 3.21-.02 4.81-.03.86.32 1.13 1.12 1.12 2.19-.03 4.38-.02 6.57 0 .49 0 1.03-.13 1.56.26-.36.5-.82.38-1.2.38-2.19.02-4.38 0-6.56.01-1.45.01-1.46.03-1.47 1.39-.02 1.82-.02 3.64 0 5.46.01 1.13.03 1.16 1.18 1.17 2.78.03 5.56 0 8.33.02.58 0 1.17-.1 1.72.14 0 .54-.38.5-.68.5-3.36 0-6.73-.01-10.1.01-.79 0-1.13-.24-1.12-1.1.03-5.08.02-10.17.01-15.25 0-.63.15-1.04.87-1.03l10.57.05c.1 0 .18.1.48.28ZM39.43 4.88c.38.55.22 1.1.23 1.62.02 2.68.01 5.36 0 8.03 0 1.24.18 2.46.62 3.62.91 2.43 3.02 3.76 5.78 3.73 2.78-.04 4.8-1.42 5.67-3.9.33-.97.45-1.97.45-3-.02-2.84-.02-5.68 0-8.51 0-.5-.2-1.06.22-1.5.53.03.4.43.4.7.02 3.32.07 6.64-.01 9.96-.09 3.39-1.83 5.87-4.63 6.58-4.22 1.1-8.35-.75-8.98-5.82-.16-1.34-.15-2.67-.16-4V6.11c.01-.39-.19-.86.4-1.24ZM137.56 5.16c1.24-.44 11.33-.43 12.5 0-.13.41-.49.34-.78.34-.96.02-1.93 0-2.89.01-2.6.03-2.24-.27-2.25 2.18-.02 3.16 0 6.33 0 9.49l-.01 3.86c-.01.34.14.75-.33 1.08-.54-.29-.3-.83-.3-1.23-.02-4.23-.02-8.47-.02-12.7v-.8c0-1.94.22-1.88-1.95-1.88l-3.2-.01c-.29-.01-.66.09-.78-.35ZM78.12 5.12c-.66.52-1.2.37-1.7.39-1.23.02-2.46.02-3.7.01-.52 0-.78.23-.76.77V7.4c0 4.4 0 8.79-.02 13.18 0 .5.19 1.06-.3 1.6-.5-.4-.33-.92-.33-1.34V7.67c0-.37-.03-.75 0-1.12.06-.77-.29-1.06-1.03-1.04-1.34.02-2.68 0-4.01 0-.3 0-.64.07-.88-.23.18-.12-.08.04-.01-.16.01-.04.04-.11.07-.11 3.62-.35 7.25-.07 10.88-.15.52-.02 1.06-.09 1.79.26ZM90.98 4.95c.39.38.22.93.22 1.42V19.7c.01 1.96-.23 1.87 1.94 1.87 2.14 0 4.28-.01 6.42 0 .5.01 1.06-.14 1.53.21-.02.52-.42.43-.7.43l-8.82.01c-.62 0-1.02-.12-1.02-.87.03-5.36.03-10.71.04-16.07 0-.15.06-.3.4-.34Z"/></g><defs><clipPath id="a"><path fill="#fff" transform="translate(.75 .9)" d="M0 0h268.1v74.2H0z"/></clipPath></defs></svg>