<svg width="805" height="259" viewBox="0 0 805 259" fill="none" xmlns="http://www.w3.org/2000/svg">
<path d="M301.1 87.1899V10.09H325.5V38.55H363.56V60.5099H325.5V87.18C325.5 95.64 329.4 98.24 334.77 98.24C340.14 98.24 344.04 95.64 344.04 87.18V84.74H368.44V87.18C368.44 110.11 354.78 121.01 334.77 121.01C314.76 121.01 301.1 110.11 301.1 87.18V87.1899Z" fill="white"/>
<path d="M382.76 3.41998H407.16V47.17C412.04 40.18 418.87 36.44 427.16 36.44C444.08 36.44 462.13 47.83 462.13 77.27V118.91H437.73V77.27C437.73 64.58 431.55 59.22 422.44 59.22C413.33 59.22 407.15 64.91 407.15 77.27V118.91H382.75V3.41998H382.76Z" fill="white"/>
<path d="M477.27 15.62C477.27 6.68 483.94 0 492.89 0C501.84 0 508.51 6.67 508.51 15.62C508.51 24.57 501.84 31.24 492.89 31.24C483.94 31.24 477.27 24.57 477.27 15.62ZM480.68 38.55H505.08V118.9H480.68V38.55Z" fill="white"/>
<path d="M520.38 79.71C520.38 53.85 538.27 36.4399 563.81 36.4399C589.35 36.4399 606.59 53.2 606.59 79.55V118.91H584.14V105.57C579.91 115.49 570.8 121.02 559.25 121.02C541.36 121.02 520.37 107.68 520.37 79.7L520.38 79.71ZM582.18 78.7299C582.18 67.1799 574.7 59.21 563.64 59.21C552.58 59.21 545.1 67.1799 545.1 78.7299C545.1 90.28 552.58 98.25 563.64 98.25C574.7 98.25 582.18 90.28 582.18 78.7299Z" fill="white"/>
<path d="M621.56 126.72H646.28C648.72 131.76 654.58 134.2 662.71 134.2C674.58 134.2 681.09 129.15 681.09 113.54V108.82C676.05 115.98 667.92 119.72 657.83 119.72C640.75 119.72 619.28 108.5 619.28 78.7299C619.28 54.33 637.17 36.4399 662.55 36.4399C687.93 36.4399 705.49 53.2 705.49 79.55V112.73C705.49 143.47 686.13 155.35 662.87 155.35C642.38 155.35 626.43 146.41 621.56 126.72ZM681.09 78.7299C681.09 67.1799 673.61 59.21 662.55 59.21C651.49 59.21 644.01 67.1799 644.01 78.7299C644.01 90.28 651.49 96.95 662.55 96.95C673.61 96.95 681.09 90.28 681.09 78.7299Z" fill="white"/>
<path d="M718.18 78.7299C718.18 54.33 736.07 36.4399 761.45 36.4399C786.83 36.4399 804.72 54.33 804.72 78.7299C804.72 103.13 786.83 121.02 761.45 121.02C736.07 121.02 718.18 103.13 718.18 78.7299ZM779.99 78.7299C779.99 67.1799 772.51 59.21 761.45 59.21C750.39 59.21 742.91 67.1799 742.91 78.7299C742.91 90.28 750.39 98.25 761.45 98.25C772.51 98.25 779.99 90.28 779.99 78.7299Z" fill="white"/>
<path d="M301.1 219.5V151.32H315.21V196.33C320.56 186.82 330.66 181.48 342.54 181.48C361.7 181.48 379.83 195.29 379.83 219.65C379.83 242.68 363.49 258.72 340.17 258.72C316.85 258.72 301.1 243.42 301.1 219.51V219.5ZM365.56 220.09C365.56 205.24 355.46 194.54 340.31 194.54C325.16 194.54 315.2 205.24 315.2 220.09C315.2 234.94 325.3 245.64 340.31 245.64C355.32 245.64 365.56 234.95 365.56 220.09Z" fill="white"/>
<path d="M388.45 220.69C388.45 197.67 404.79 181.48 428.11 181.48C451.43 181.48 467.18 197.22 467.18 220.69V256.79H454.26V240.75C449.36 252.63 438.52 258.72 425.74 258.72C406.58 258.72 388.46 244.9 388.46 220.69H388.45ZM453.21 220.09C453.21 205.24 443.11 194.54 427.96 194.54C412.81 194.54 402.71 205.24 402.71 220.09C402.71 234.94 412.81 245.64 427.96 245.64C443.11 245.64 453.21 234.95 453.21 220.09Z" fill="white"/>
<path d="M481.75 229.01V157.41H495.86V183.41H536.26V196.33H495.86V229.01C495.86 240.59 501.95 245.64 511.16 245.64C520.37 245.64 526.61 240.74 526.61 229.01V227.38H540.57V229.01C540.57 248.91 528.69 258.72 511.16 258.72C493.63 258.72 481.75 248.92 481.75 229.01Z" fill="white"/>
<path d="M552.16 161.87C552.16 156.22 556.32 152.06 561.96 152.06C567.6 152.06 571.76 156.22 571.76 161.87C571.76 167.52 567.6 171.82 561.96 171.82C556.32 171.82 552.16 167.51 552.16 161.87ZM554.98 183.41H569.09V256.79H554.98V183.41Z" fill="white"/>
<path d="M584.4 245.2L631.64 196.03H586.63V183.4H650.5V194.98L603.26 244.15H651.98V256.78H584.39V245.2H584.4Z" fill="white"/>
<path d="M660.91 220.09C660.91 197.81 677.25 181.47 700.42 181.47C723.59 181.47 739.64 197.81 739.64 220.09V225.29H675.77C677.85 238.36 687.65 245.64 700.43 245.64C709.94 245.64 716.62 242.67 720.93 236.28H736.53C730.88 249.95 717.52 258.71 700.43 258.71C677.26 258.71 660.92 242.37 660.92 220.09H660.91ZM724.79 212.66C721.97 200.92 712.31 194.54 700.43 194.54C688.55 194.54 679.04 201.08 676.22 212.66H724.8H724.79Z" fill="white"/>
<path d="M753.91 151.32H768.02V256.78H753.91V151.32Z" fill="white"/>
<path d="M785.11 161.87C785.11 156.22 789.27 152.06 794.91 152.06C800.55 152.06 804.71 156.22 804.71 161.87C804.71 167.52 800.55 171.82 794.91 171.82C789.27 171.82 785.11 167.51 785.11 161.87ZM787.93 183.41H802.04V256.79H787.93V183.41Z" fill="white"/>
<path d="M71.26 69.97H31.74V52.02H211.75V69.97H90.73V176.88H71.26V69.97Z" fill="#C62438"/>
<path d="M193.78 150.99V150.61C204.66 145.64 210.96 135.72 210.96 122.73C210.96 104.02 198.55 90.66 175.45 90.66H115.31V179.62H134.78V160.91H177.54C189.57 160.91 196.63 168.74 196.63 179.62C196.63 189.55 190.9 197.57 177.16 197.57H31.74V215.52H180.41C204.08 215.52 216.68 201.39 216.68 182.11C216.68 166.84 208.09 155.19 193.77 150.99H193.78ZM173.35 142.97H134.78V108.61H172.96C186.33 108.61 191.67 115.87 191.67 125.79C191.67 135.71 185.18 142.97 173.34 142.97H173.35Z" fill="#C62438"/>
<path d="M248.42 257.98H0V9.56H248.42V257.98ZM5.2 252.78H243.23V14.75H5.2V252.78Z" fill="#C62438"/>
</svg>
