<svg xmlns="http://www.w3.org/2000/svg" xmlns:xlink="http://www.w3.org/1999/xlink" width="40.085" height="36.958" viewBox="0 0 40.085 36.958">
<defs>
<clipPath id="clip-path">
<rect id="Retângulo_15" data-name="Retângulo 15" width="40.085" height="36.958" fill="none"/>
</clipPath>
</defs>
<g id="Grupo_2" data-name="Grupo 2" clip-path="url(#clip-path)">
<path id="Caminho_4" data-name="Caminho 4" d="M40.085,33.588a10.765,10.765,0,0,1-.787,1.759,3.531,3.531,0,0,1-3.027,1.6c-4.2.023-8.4.011-12.6.009a.8.8,0,0,1-.874-.8.809.809,0,0,1,.906-.765q6.087,0,12.174,0a2.382,2.382,0,0,0,2.647-2.629q0-10.668,0-21.335v-.443H1.566v.4q0,10.726,0,21.453a2.365,2.365,0,0,0,2.568,2.551H16.19c.13,0,.262-.007.391.005a.779.779,0,0,1-.006,1.555c-.1.01-.209,0-.313,0q-6.067,0-12.135,0a3.906,3.906,0,0,1-4.069-3.27.36.36,0,0,0-.059-.1V5.949a.855.855,0,0,0,.062-.142A3.279,3.279,0,0,1,3.435,3.131c1.252,0,2.505,0,3.758,0h.48c0-.3,0-.541,0-.787a2.347,2.347,0,0,1,4.695-.012c.005.257,0,.514,0,.772h5.325c0-.274,0-.52,0-.767a2.347,2.347,0,0,1,4.695,0c.005.256,0,.512,0,.763h5.325c0-.251,0-.472,0-.693a2.349,2.349,0,1,1,4.7.016c0,.229,0,.459,0,.674a.871.871,0,0,0,.129.03c1.4,0,2.792,0,4.188.005A3.272,3.272,0,0,1,40.016,5.77a1.266,1.266,0,0,0,.069.179ZM38.5,9.386c.008-.111.022-.222.023-.333,0-.848.005-1.7,0-2.544A1.722,1.722,0,0,0,36.7,4.7c-1.265,0-2.531,0-3.8,0H32.41c0,.316.008.588,0,.859a2.346,2.346,0,0,1-4.691-.015c-.008-.27,0-.54,0-.818H22.39c0,.271,0,.518,0,.763a2.347,2.347,0,0,1-4.695.007c0-.256,0-.513,0-.767H12.369c0,.275,0,.522,0,.769a2.347,2.347,0,0,1-4.695-.011c0-.256,0-.511,0-.781-1.553,0-3.053-.029-4.55.011A1.666,1.666,0,0,0,1.57,6.385c-.014.743,0,1.487,0,2.231,0,.255,0,.509,0,.77ZM10.8,3.943c0-.481,0-.963,0-1.444,0-.569-.3-.925-.772-.932s-.79.351-.792.911q-.006,1.444,0,2.888a.8.8,0,0,0,.771.893c.472.006.788-.353.792-.912,0-.468,0-.937,0-1.4m10.021,0c0-.494,0-.989,0-1.483a.787.787,0,1,0-1.563-.019q-.009,1.463,0,2.926a.8.8,0,0,0,.772.893c.472.006.787-.353.792-.912,0-.468,0-.936,0-1.4m10.021-.03c0-.494.005-.989,0-1.483a.785.785,0,1,0-1.562,0q-.009,1.483,0,2.966a.785.785,0,1,0,1.562,0c.007-.494,0-.989,0-1.483" transform="translate(0 0)" fill="#fff"/>
<path id="Caminho_5" data-name="Caminho 5" d="M63.817,181.846c0,.978,0,1.955,0,2.933,0,.669-.285.957-.951.958q-2.971,0-5.943,0a.813.813,0,0,1-.934-.935q0-2.991,0-5.983a.8.8,0,0,1,.911-.909q3.011,0,6.021,0a.788.788,0,0,1,.894.887c.005,1.017,0,2.033,0,3.05M62.225,179.5H57.587v4.659h4.638Z" transform="translate(-51.603 -163.978)" fill="#fff"/>
<path id="Caminho_6" data-name="Caminho 6" d="M213.815,181.786c0,1,0,2.007,0,3.011,0,.64-.293.936-.931.937q-2.991.006-5.982,0a.806.806,0,0,1-.913-.916q0-3.011,0-6.022a.787.787,0,0,1,.891-.889q3.03-.005,6.06,0a.781.781,0,0,1,.874.867c.007,1,0,2.007,0,3.011m-1.583-2.285h-4.647v4.647h4.647Z" transform="translate(-189.858 -163.977)" fill="#fff"/>
<path id="Caminho_7" data-name="Caminho 7" d="M363.819,181.832c0,.991,0,1.981,0,2.972a.814.814,0,0,1-.935.934q-2.972.005-5.943,0c-.665,0-.949-.29-.95-.959q0-2.972,0-5.943c0-.643.286-.925.935-.926q2.991,0,5.982,0a.8.8,0,0,1,.91.91c0,1,0,2.007,0,3.011m-1.583-2.328h-4.647v4.646h4.647Z" transform="translate(-328.118 -163.98)" fill="#fff"/>
<path id="Caminho_8" data-name="Caminho 8" d="M59.9,313.918c.99,0,1.981,0,2.971,0,.652,0,.94.28.941.919q0,2.991,0,5.983c0,.635-.3.925-.943.926q-2.971,0-5.943,0c-.646,0-.94-.292-.941-.928q0-2.991,0-5.983c0-.624.287-.914.9-.917,1,0,2.007,0,3.011,0m2.322,1.6H57.587v4.658h4.637Z" transform="translate(-51.603 -289.34)" fill="#fff"/>
<path id="Caminho_9" data-name="Caminho 9" d="M209.905,313.915c.99,0,1.981,0,2.972,0,.648,0,.934.282.935.926q0,2.991,0,5.983a.8.8,0,0,1-.91.919q-3.011.007-6.021,0a.8.8,0,0,1-.895-.894q-.006-3.03,0-6.061a.78.78,0,0,1,.87-.871c1.017-.006,2.033,0,3.05,0m2.323,1.594h-4.647v4.648h4.647Z" transform="translate(-189.855 -289.337)" fill="#fff"/>
<path id="Caminho_10" data-name="Caminho 10" d="M363.812,317.846c0,.991,0,1.981,0,2.972a.807.807,0,0,1-.906.923q-3.011.007-6.021,0a.8.8,0,0,1-.9-.89q-.006-3.03,0-6.061a.778.778,0,0,1,.865-.875q3.05-.007,6.1,0a.781.781,0,0,1,.861.88c.006,1.017,0,2.033,0,3.05m-1.591-2.337h-4.638v4.659h4.638Z" transform="translate(-328.112 -289.335)" fill="#fff"/>
<path id="Caminho_11" data-name="Caminho 11" d="M247.6,452.816a.78.78,0,1,1-.776-.764.79.79,0,0,1,.776.764" transform="translate(-226.774 -416.66)" fill="#fff"/>
</g>
</svg>