<svg xmlns="http://www.w3.org/2000/svg" xmlns:xlink="http://www.w3.org/1999/xlink" width="38.862" height="30.688" viewBox="0 0 38.862 30.688">
<defs>
<clipPath id="clip-path">
<rect id="Retângulo_50" data-name="Retângulo 50" width="38.862" height="30.688" fill="#fff"/>
</clipPath>
</defs>
<g id="Grupo_7" data-name="Grupo 7" clip-path="url(#clip-path)">
<path id="Caminho_36" data-name="Caminho 36" d="M0,2.685c.032-.107.067-.214.1-.322A3.143,3.143,0,0,1,2.935.013C3.112,0,3.289,0,3.466,0H31.205a2.772,2.772,0,0,1,.454.019.5.5,0,0,1,.455.521.5.5,0,0,1-.41.557,2.59,2.59,0,0,1-.565.038q-13.869,0-27.739,0a2.266,2.266,0,0,0-1.465.411,1.789,1.789,0,0,0-.771,1.339c-.041,1.043-.012,2.089-.012,3.154h36.56c0-1.057.046-2.093-.013-3.123a1.945,1.945,0,0,0-1.941-1.773c-.543-.018-1.088,0-1.632-.007A.611.611,0,0,1,33.5.795a.527.527,0,0,1,.417-.769A12.519,12.519,0,0,1,36.41.1a2.948,2.948,0,0,1,2.378,2.372c.018.071.049.14.073.209V24.579c-.188.255-.4.469-.756.34s-.385-.419-.385-.743q.005-8.234,0-16.469V7.227H1.139V8.3c0,.644-.006,1.287,0,1.931,0,.323-.037.615-.385.743S.189,10.894,0,10.639V2.685" transform="translate(0 0)" fill="#fff"/>
<path id="Caminho_37" data-name="Caminho 37" d="M38.862,177.976l-.143.464a3.119,3.119,0,0,1-2.751,2.2c-.2.016-.4.025-.606.025q-15.93,0-31.86.006a3.236,3.236,0,0,1-2.918-1.362A7.806,7.806,0,0,1,0,177.976v-15.3c.2-.24.405-.461.763-.323s.377.428.377.747q0,7.083,0,14.167a2.044,2.044,0,0,0,2.277,2.268q16.015,0,32.03,0a2.041,2.041,0,0,0,2.277-2.269c0-.076,0-.152,0-.227-.015-.32.025-.612.376-.747s.565.083.763.323Z" transform="translate(0 -149.988)" fill="#fff"/>
<path id="Caminho_38" data-name="Caminho 38" d="M117.221,109.729c.8,0,1.54,0,2.283,0,.569,0,.75.175.751.745,0,1.464,0,2.928,0,4.392,0,.15,0,.3,0,.49.163.01.3.024.428.026.442.005.886-.007,1.327.014a.5.5,0,0,1,.505.513.515.515,0,0,1-.468.587,2.429,2.429,0,0,1-.415.023H99.518c-.619,0-.886-.177-.883-.578s.258-.558.894-.558H100.9c0-.189,0-.336,0-.483q0-2.4,0-4.809c0-.641.17-.808.808-.808q1.309,0,2.618,0c.557,0,.741.188.748.754,0,.314,0,.629,0,1h1.873c.009-.154.023-.287.023-.419,0-1.048,0-2.1,0-3.143,0-.594.18-.769.767-.77q1.347,0,2.693,0c.511,0,.7.193.712.712.007.3.005.606.009.908a.5.5,0,0,0,.026.1h1.841c.007-.128.02-.26.021-.393,0-.846,0-1.691,0-2.537,0-.529.185-.711.706-.714q1.366-.008,2.731,0c.553,0,.732.176.734.725.005,1.237,0,2.474,0,3.711,0,.15,0,.3,0,.515m-3,5.621h1.834v-9.416H114.22Zm-4.23-7.483h-1.841v7.483h1.841Zm3.025,7.515v-5.776h-1.863c0,1.872,0,3.722.009,5.571a.284.284,0,0,0,.2.2c.54.016,1.082.009,1.658.009m-9.1-4.934h-1.848v4.91h1.848Zm13.325,4.91h1.848v-4.471h-1.848Zm-10.3-3.159H105.1v3.159h1.841Z" transform="translate(-91.148 -96.823)" fill="#fff"/>
<path id="Caminho_39" data-name="Caminho 39" d="M107.722,274.013a1.641,1.641,0,0,1,1.037-1.473,1.677,1.677,0,0,1,1.935.306.475.475,0,0,0,.559.115q3.316-1.13,6.641-2.233a.484.484,0,0,0,.372-.438,1.771,1.771,0,0,1,3.455-.139.424.424,0,0,0,.37.348c1.48.326,2.96.652,4.435,1a.556.556,0,0,0,.644-.2,1.731,1.731,0,0,1,2.18-.331,1.78,1.78,0,0,1-.974,3.318,1.759,1.759,0,0,1-1.63-1.307.432.432,0,0,0-.394-.367q-2.257-.5-4.508-1.02a.424.424,0,0,0-.487.156,1.728,1.728,0,0,1-2.557.14.444.444,0,0,0-.531-.1q-3.334,1.135-6.675,2.25a.45.45,0,0,0-.351.414,1.755,1.755,0,0,1-1.87,1.468,1.807,1.807,0,0,1-1.649-1.908m20.094-1.556a.649.649,0,0,0,.594.694.642.642,0,0,0,.108-1.278.645.645,0,0,0-.7.584m-7.168-1.847a.63.63,0,0,0-.644-.64.646.646,0,0,0-.641.65.665.665,0,0,0,.631.631.653.653,0,0,0,.654-.64m-10.509,3.544a.634.634,0,0,0-.618-.637.618.618,0,0,0-.656.628.629.629,0,0,0,.611.642.643.643,0,0,0,.664-.634" transform="translate(-99.546 -248.427)" fill="#fff"/>
<path id="Caminho_40" data-name="Caminho 40" d="M42.329,27.081A1.778,1.778,0,1,1,44.12,25.32a1.77,1.77,0,0,1-1.791,1.762m.649-1.782a.636.636,0,1,0-1.271.016.636.636,0,1,0,1.271-.016" transform="translate(-37.484 -21.74)" fill="#fff"/>
<path id="Caminho_41" data-name="Caminho 41" d="M99.319,27.079a1.778,1.778,0,1,1,1.806-1.746,1.769,1.769,0,0,1-1.806,1.746m.664-1.774a.636.636,0,1,0-1.271,0,.636.636,0,1,0,1.271,0" transform="translate(-90.164 -21.738)" fill="#fff"/>
<path id="Caminho_42" data-name="Caminho 42" d="M156.324,27.081a1.778,1.778,0,1,1,1.8-1.752,1.77,1.77,0,0,1-1.8,1.752m0-1.138a.624.624,0,0,0,.652-.6.635.635,0,1,0-1.269-.037.627.627,0,0,0,.617.635" transform="translate(-142.836 -21.739)" fill="#fff"/>
</g>
</svg>