<svg id="icon" xmlns="http://www.w3.org/2000/svg" xmlns:xlink="http://www.w3.org/1999/xlink" width="61.813" height="60.987" viewBox="0 0 61.813 60.987">
<defs>
<clipPath id="clip-path">
<rect id="Retângulo_34" data-name="Retângulo 34" width="61.813" height="60.987" fill="#c22236"/>
</clipPath>
</defs>
<g id="Grupo_5" data-name="Grupo 5" clip-path="url(#clip-path)">
<path id="Caminho_24" data-name="Caminho 24" d="M61.813,114.11c-1.42,1.266-2.783,2.6-4.274,3.778a10.256,10.256,0,0,0-3.239,4.23c-.762,1.834-1.7,3.6-2.54,5.4a.848.848,0,0,0-.073.6c1.374,3.325-.179,6.048-3.737,6.445a4.4,4.4,0,0,1-4.332,4.356c-.66,2.994-1.627,3.962-4.384,4.353a4.26,4.26,0,0,1-2.762,4,4.318,4.318,0,0,1-4.81-1.131,4.47,4.47,0,0,1-4.645,1.789,4.256,4.256,0,0,1-3.32-3.717,9.577,9.577,0,0,1-1.12-.006,4.2,4.2,0,0,1-3.766-3.785c-.036-.321-.06-.538-.491-.586a4.193,4.193,0,0,1-3.859-4.436c0-.137,0-.273,0-.425-.336-.087-.651-.147-.95-.25a4.259,4.259,0,0,1-2.041-6.535.638.638,0,0,0-.02-.924c-1.6-2.121-3.155-4.27-4.763-6.382a9.244,9.244,0,0,0-1.334-1.3C3.8,118.237,2.24,116.909.69,115.565a9.745,9.745,0,0,1-.69-.731v-.845q5.754-7.124,11.508-14.246c.681-.843,1.158-.923,2.068-.347,1.884,1.193,3.754,2.41,5.654,3.576a7.791,7.791,0,0,0,1.846.829c1.867.551,3.751,1.046,5.634,1.538a1.761,1.761,0,0,0,.874-.01c1.934-.534,3.858-1.107,5.793-1.642a5.305,5.305,0,0,1,1.357-.2c2.533-.019,5.067,0,7.6-.023a2.142,2.142,0,0,0,1.058-.3c2-1.239,3.972-2.515,5.958-3.773.9-.57,1.4-.479,2.06.375q4.987,6.472,9.969,12.949c.143.186.289.37.434.555ZM20.657,128.5a4.381,4.381,0,0,1,5.243,4.26A4.375,4.375,0,0,1,30.118,138c.03.026.057.07.09.075a4.294,4.294,0,0,1,3.16,5.934c-.049.117-.028.371.047.415a4.409,4.409,0,0,0,1.36.686,1.648,1.648,0,0,0,1.787-.96,1.812,1.812,0,0,0-.295-2.127c-.812-.865-1.662-1.695-2.5-2.539-.127-.129-.261-.252-.381-.387a1.217,1.217,0,0,1-.035-1.736,1.2,1.2,0,0,1,1.732.018c.936.912,1.847,1.851,2.764,2.783a1.861,1.861,0,1,0,2.683-2.574c-1.462-1.524-2.967-3.007-4.451-4.51a11.292,11.292,0,0,1-.869-.92,1.186,1.186,0,0,1,.085-1.547,1.212,1.212,0,0,1,1.594-.13,3.882,3.882,0,0,1,.441.411q2.4,2.423,4.794,4.85a1.909,1.909,0,0,0,1.953.646,1.859,1.859,0,0,0,.749-3.206q-3.576-3.636-7.173-7.251a8.345,8.345,0,0,1-.7-.746,1.167,1.167,0,0,1,.124-1.588,1.205,1.205,0,0,1,1.549-.093,5.321,5.321,0,0,1,.57.537q3.651,3.689,7.3,7.377a1.872,1.872,0,1,0,2.611-2.652q-6.953-6.959-13.922-13.9a1.538,1.538,0,0,0-.887-.374c-1.421-.131-2.849-.193-4.271-.322a.736.736,0,0,0-.856.431q-1.343,2.46-2.76,4.88A4.278,4.278,0,1,1,19,115.214c1.392-2.514,2.829-5,4.246-7.5.117-.207.226-.418.372-.689-1.137-.308-2.212-.619-3.3-.875-.159-.037-.434.137-.562.291q-5.222,6.329-10.421,12.678c-.161.2-.313.4-.473.6L13.521,126a4.35,4.35,0,0,1,7.136,2.5m29.132-2.508c1.033-2.166,2.014-4.258,3.034-6.329a.85.85,0,0,0-.112-1.064q-4.854-6.125-9.665-12.283a1.011,1.011,0,0,0-.909-.427c-2.414.016-4.829,0-7.244.014a3.781,3.781,0,0,0-1.006.14q-3.94,1.123-7.87,2.28a.93.93,0,0,0-.519.348c-1.5,2.615-2.992,5.235-4.455,7.871a1.8,1.8,0,0,0,.453,2.244,1.861,1.861,0,0,0,2.872-.606q1.622-2.824,3.206-5.668a1.448,1.448,0,0,1,1.521-.832q3.008.235,6.02.414a2.158,2.158,0,0,1,1.469.708q6.323,6.354,12.671,12.683c.154.154.315.3.533.507M17.817,104.963l-4.9-3.113L2.894,114.27l4.272,3.667,10.651-12.974m27.258.02,9.6,12.206,4.267-3.676-8.969-11.647-4.9,3.117m-26.169,32.47a2.248,2.248,0,0,0,.865-.35c1.127-1.06,2.245-2.135,3.28-3.283a1.828,1.828,0,0,0-2.636-2.5q-1.607,1.5-3.113,3.114a1.689,1.689,0,0,0-.237,1.975,1.883,1.883,0,0,0,1.841,1.049m2.179,2.477a2.1,2.1,0,0,0,1.228,1.723,1.727,1.727,0,0,0,2.01-.35c.985-.949,1.961-1.908,2.9-2.9a1.847,1.847,0,1,0-2.645-2.578c-.953.924-1.908,1.849-2.8,2.826a5.785,5.785,0,0,0-.688,1.28m10.2,2.049a1.835,1.835,0,0,0-2.876-1.185,16.038,16.038,0,0,0-1.914,1.9,1.678,1.678,0,0,0-.126,1.978,1.746,1.746,0,0,0,1.689.945c1.149-.035,3.225-2.189,3.227-3.642m-14.9-14.708a3.878,3.878,0,0,0-1.073.464,17.155,17.155,0,0,0-1.871,1.864,1.8,1.8,0,0,0,.189,2.41,1.829,1.829,0,0,0,2.465.1,18.084,18.084,0,0,0,1.7-1.7,1.777,1.777,0,0,0,.266-2.027,1.966,1.966,0,0,0-1.675-1.111" transform="translate(0 -87.07)" fill="#c22236"/>
<path id="Caminho_25" data-name="Caminho 25" d="M302.1,39.218c-.4-.314-.852-.512-1.015-.85a2.125,2.125,0,0,1,.037-1.182c.031-.169.241-.311.382-.453q3.9-3.9,7.807-7.8a2.2,2.2,0,0,1,.725-.513,1.084,1.084,0,0,1,1.295.379,1.11,1.11,0,0,1,.1,1.348,2.7,2.7,0,0,1-.424.505q-3.9,3.905-7.81,7.8a8.31,8.31,0,0,1-1.1.769" transform="translate(-264.667 -24.916)" fill="#c22236"/>
<path id="Caminho_26" data-name="Caminho 26" d="M124.173,27.1a5.183,5.183,0,0,1,1,.582q4.092,4.054,8.15,8.141a1.175,1.175,0,0,1,.062,1.769,1.192,1.192,0,0,1-1.771-.062q-4.083-4.062-8.147-8.144a1.09,1.09,0,0,1-.285-1.417,4.757,4.757,0,0,1,.994-.868" transform="translate(-108.168 -23.825)" fill="#c22236"/>
<path id="Caminho_27" data-name="Caminho 27" d="M245.966,44.773c0-1.085-.006-2.17,0-3.256a1.217,1.217,0,1,1,2.415.02q.009,3.256,0,6.511a1.231,1.231,0,0,1-1.188,1.381c-.735.012-1.223-.537-1.228-1.4-.006-1.085,0-2.17,0-3.256" transform="translate(-216.269 -35.31)" fill="#c22236"/>
<path id="Caminho_28" data-name="Caminho 28" d="M247.216,2.41a1.213,1.213,0,0,1-1.2-1.177,1.206,1.206,0,1,1,2.411,0,1.216,1.216,0,0,1-1.207,1.174" transform="translate(-216.312 0)" fill="#c22236"/>
</g>
</svg>