<svg id="icon_1" data-name="icon 1" xmlns="http://www.w3.org/2000/svg" xmlns:xlink="http://www.w3.org/1999/xlink" width="39.869" height="39.875" viewBox="0 0 39.869 39.875">
<defs>
<clipPath id="clip-path">
<rect id="Retângulo_14" data-name="Retângulo 14" width="39.869" height="39.875" fill="none"/>
</clipPath>
</defs>
<g id="Grupo_1" data-name="Grupo 1" clip-path="url(#clip-path)">
<path id="Caminho_3" data-name="Caminho 3" d="M14.878,35.1V31.869h-.469c-3.391,0-6.782.008-10.174,0A4.108,4.108,0,0,1,.12,28.633a5.051,5.051,0,0,1-.114-1.125Q0,15.934,0,4.359A4.172,4.172,0,0,1,4.367,0Q19.931,0,35.5,0a4.17,4.17,0,0,1,4.37,4.351q.006,11.575,0,23.15a4.155,4.155,0,0,1-4.348,4.365q-5.006.007-10.012,0H25V35.1c.634,0,1.264-.01,1.894,0a2.364,2.364,0,0,1,2.373,2.525,2.391,2.391,0,0,1-2.5,2.246q-6.4.006-12.808,0c-.338,0-.676.009-1.013,0a2.4,2.4,0,0,1-2.336-2.118,2.375,2.375,0,0,1,1.918-2.61,3.465,3.465,0,0,1,.645-.043c.553-.006,1.106,0,1.707,0m23.3-29.426H1.708V26.226h8.6c0-.187,0-.347,0-.507a4.317,4.317,0,0,1,2.114-3.789,8.393,8.393,0,0,1,2.035-.746,2.722,2.722,0,0,0,2.1-2.523.925.925,0,0,0-.186-.579,9.37,9.37,0,0,1-1.51-2.713,6.167,6.167,0,0,1-.035-4.586A5.529,5.529,0,0,1,25.461,13.04a8.478,8.478,0,0,1-1.942,5.012.912.912,0,0,0-.219.493,2.715,2.715,0,0,0,2,2.6c.234.065.473.111.709.166a4.473,4.473,0,0,1,3.524,4.042c.026.29.036.581.054.869h8.593Zm-.022,22.26H1.689a2.527,2.527,0,0,0,.628,1.451,2.692,2.692,0,0,0,2.151.843q15.466-.008,30.932,0c.135,0,.271,0,.405-.008a2.453,2.453,0,0,0,2.349-2.283m.008-23.98a1.662,1.662,0,0,0-.011-.216,2.479,2.479,0,0,0-2.613-2.06q-15.606,0-31.212,0c-.149,0-.3,0-.446.013a2.417,2.417,0,0,0-2.16,2.263Zm-22.07,9.627a6.738,6.738,0,0,0,2.361,4.206,2.207,2.207,0,0,0,3.031-.048,6.52,6.52,0,0,0,2.18-3.651,3.658,3.658,0,0,0,.062-1.9c-.728-.122-1.4-.244-2.072-.337-.1-.014-.238.084-.335.16-.446.35-.858.748-1.328,1.058a3.783,3.783,0,0,1-3.9.516M23.3,31.9H16.574v3.165H23.3ZM19.92,38.2q3.4,0,6.806,0c.556,0,.892-.273.9-.714s-.339-.721-.887-.733c-.067,0-.135,0-.2,0q-6.6,0-13.206,0a2.061,2.061,0,0,0-.561.049.657.657,0,0,0-.506.734.67.67,0,0,0,.613.651,2.825,2.825,0,0,0,.4.012H19.92M18.146,19.593c-.214.436-.4.882-.649,1.3a.509.509,0,0,0-.022.58c.761,1.443,1.505,2.9,2.256,4.345.052.1.114.2.168.288.046-.022.064-.025.068-.034q1.215-2.4,2.424-4.8a.381.381,0,0,0,0-.294c-.218-.46-.453-.911-.685-1.369a3.9,3.9,0,0,1-3.565-.01m3.621,6.632h6.084a2.874,2.874,0,0,0-2.135-3.281c-.659-.169-1.309-.373-2.012-.575l-1.938,3.856m-5.673-3.821c-.7.2-1.348.382-1.995.557a2.828,2.828,0,0,0-2.07,3.257h6.04l-1.975-3.815m6.688-11.95c-.041-.144-.041-.176-.056-.192a3.817,3.817,0,0,0-6.356,1.2.479.479,0,0,0,.149.415,1.657,1.657,0,0,0,2.041.088,15.289,15.289,0,0,0,2.011-1.6c.485-.445.741-.535,1.323-.25.26.127.541.212.888.345" transform="translate(0 -0.001)" fill="#fff"/>
</g>
</svg>