<svg xmlns="http://www.w3.org/2000/svg" xmlns:xlink="http://www.w3.org/1999/xlink" width="28.193" height="38.164" viewBox="0 0 28.193 38.164">
<defs>
<clipPath id="clip-path">
<rect id="Retângulo_51" data-name="Retângulo 51" width="28.193" height="38.164" fill="none"/>
</clipPath>
</defs>
<g id="Grupo_8" data-name="Grupo 8" clip-path="url(#clip-path)">
<path id="Caminho_43" data-name="Caminho 43" d="M1.353,38.165A1.917,1.917,0,0,1,0,36.08q.027-17.1.012-34.2A1.7,1.7,0,0,1,1.358.043,2.333,2.333,0,0,1,1.839.007Q11.565,0,21.29,0a1.315,1.315,0,0,1,.994.412q2.739,2.741,5.493,5.468a1.306,1.306,0,0,1,.416.991q-.009,14.735,0,29.469a1.79,1.79,0,0,1-1.345,1.824ZM21.082,1.124H1.957c-.675,0-.827.153-.827.833q0,17.118,0,34.236c0,.705.146.853.845.853H26.231c.683,0,.839-.153.839-.823q0-14.361,0-28.723V7.086h-.455c-1.267,0-2.534,0-3.8,0a1.656,1.656,0,0,1-1.729-1.7c-.013-.646,0-1.291,0-1.937,0-.756,0-1.511,0-2.321m5.009,4.844L22.21,2.012c0,1.163-.013,2.313.008,3.464.006.338.263.488.59.491.472,0,.944,0,1.415,0h1.867" transform="translate(0 -0.001)" fill="#fff"/>
<path id="Caminho_44" data-name="Caminho 44" d="M109.978,131a2.984,2.984,0,1,1-.011,5.044l-2.931,2.938a2.965,2.965,0,0,1,.248,2.687,2.878,2.878,0,0,1-1.317,1.514,2.98,2.98,0,1,1,.177-5.1l2.907-2.951a3.028,3.028,0,0,1,.067-3.313l-1.661-1.656a5.97,5.97,0,0,1-.575-.583,1.035,1.035,0,0,0-1.433-.364,2.959,2.959,0,0,1-3.875-3.331,1.857,1.857,0,0,1,.048-.18.559.559,0,1,1,1.084.251A1.866,1.866,0,0,0,104,128.206a1.765,1.765,0,0,0,1.92-.569,1.816,1.816,0,0,0,.262-2.018,1.937,1.937,0,0,0-1.792-1.055c-.074.006-.148.027-.221.028a.561.561,0,0,1-.593-.5.551.551,0,0,1,.483-.6,3.1,3.1,0,0,1,2.08.431l2.918-2.946a2.979,2.979,0,0,1-.264-2.658,2.9,2.9,0,0,1,1.3-1.53,2.977,2.977,0,0,1,3.829,4.419,3.025,3.025,0,0,1-4.03.636c-.47.471-.949.953-1.43,1.433s-.969.961-1.468,1.455a3.157,3.157,0,0,1,.024,3.346L109.978,131m-5.475,11.44a1.854,1.854,0,0,0,1.871-1.866,1.879,1.879,0,0,0-1.856-1.855,1.86,1.86,0,0,0-1.863,1.876,1.84,1.84,0,0,0,1.848,1.844m8.929-8.932a1.86,1.86,0,1,0-1.862,1.869,1.845,1.845,0,0,0,1.862-1.869m0-14.134a1.86,1.86,0,1,0-1.853,1.842,1.852,1.852,0,0,0,1.853-1.842" transform="translate(-93.944 -107.696)" fill="#fff"/>
<path id="Caminho_45" data-name="Caminho 45" d="M126.673,33.09V31.967h-8.431V33.09c.621,0,1.225,0,1.83,0,.159,0,.369-.021.466.067.156.141.339.374.321.549s-.262.458-.418.465c-.954.044-1.911.036-2.867.015a.489.489,0,0,1-.464-.539c-.014-.757-.019-1.515,0-2.272.01-.386.241-.554.686-.555q2.571,0,5.142,0,2.068,0,4.136,0c.551,0,.729.181.732.741,0,.646,0,1.292,0,1.937,0,.512-.192.7-.694.705q-2.012.006-4.024,0c-.441,0-.7-.2-.7-.543s.26-.57.721-.572c1.043,0,2.087,0,3.13,0h.435" transform="translate(-108.355 -28.521)" fill="#fff"/>
<path id="Caminho_46" data-name="Caminho 46" d="M49.214,326.59c-.807,0-1.614,0-2.42,0-.432,0-.689-.214-.689-.557s.259-.558.69-.559q2.439,0,4.878,0c.431,0,.689.217.689.56s-.258.555-.69.556c-.819,0-1.638,0-2.458,0" transform="translate(-42.663 -301.171)" fill="#fff"/>
<path id="Caminho_47" data-name="Caminho 47" d="M49.209,352.54c-.807,0-1.614,0-2.42,0-.427,0-.686-.222-.68-.566s.255-.549.661-.549q2.476-.006,4.952,0a.569.569,0,0,1,.643.568c-.006.333-.254.545-.661.547-.832,0-1.663,0-2.495,0" transform="translate(-42.666 -325.183)" fill="#fff"/>
<path id="Caminho_48" data-name="Caminho 48" d="M49.242,127.386c-.806,0-1.613,0-2.419,0-.451,0-.7-.193-.71-.534s.247-.579.707-.58c1.625-.005,3.25,0,4.875,0,.262,0,.521.056.606.331a.629.629,0,0,1-.038.513.881.881,0,0,1-.566.261c-.818.028-1.637.012-2.456.012" transform="translate(-42.67 -116.841)" fill="#fff"/>
<path id="Caminho_49" data-name="Caminho 49" d="M49.242,153.324c-.806,0-1.613,0-2.419,0-.45,0-.7-.194-.709-.535s.247-.578.708-.58q2.419-.007,4.838,0c.567,0,.9.43.624.814a.845.845,0,0,1-.586.287c-.817.032-1.637.013-2.456.013" transform="translate(-42.67 -140.84)" fill="#fff"/>
<path id="Caminho_50" data-name="Caminho 50" d="M251.073,243.439c.806,0,1.613,0,2.419,0,.451,0,.69.193.7.542.007.366-.242.573-.71.573q-2.419,0-4.839,0c-.434,0-.7-.212-.7-.55s.258-.564.718-.566c.806,0,1.613,0,2.419,0" transform="translate(-229.424 -225.263)" fill="#fff"/>
<path id="Caminho_51" data-name="Caminho 51" d="M251.076,426.749c-.806,0-1.612,0-2.419,0-.445,0-.7-.2-.713-.532s.258-.582.71-.583c1.612,0,3.225,0,4.838,0a1.284,1.284,0,0,1,.149.005.552.552,0,0,1,.556.576.53.53,0,0,1-.59.532c-.843.009-1.687,0-2.53,0" transform="translate(-229.432 -393.852)" fill="#fff"/>
<path id="Caminho_52" data-name="Caminho 52" d="M251.068,452.691c-.806,0-1.612,0-2.419,0-.438,0-.7-.208-.7-.545s.257-.567.686-.569q2.437-.009,4.875,0c.451,0,.687.2.691.556s-.235.557-.715.559c-.806,0-1.612,0-2.419,0" transform="translate(-229.437 -417.857)" fill="#fff"/>
<path id="Caminho_53" data-name="Caminho 53" d="M48.527,378.49c-.584,0-1.168,0-1.751,0-.41,0-.657-.209-.665-.543s.25-.571.677-.572q1.751-.006,3.5,0c.437,0,.682.212.679.565s-.244.549-.69.551c-.584,0-1.168,0-1.751,0" transform="translate(-42.668 -349.196)" fill="#fff"/>
<path id="Caminho_54" data-name="Caminho 54" d="M260.085,400.769c-.582,0-1.165,0-1.747,0-.42,0-.648-.2-.65-.548s.228-.56.643-.564q1.766-.014,3.532,0a.564.564,0,0,1,.634.576c-.009.335-.246.532-.664.536-.582.005-1.165,0-1.747,0" transform="translate(-238.448 -369.81)" fill="#fff"/>
<path id="Caminho_55" data-name="Caminho 55" d="M250.339,269.386c.571,0,1.143,0,1.714,0,.425,0,.651.2.655.546s-.231.566-.639.568q-1.733.01-3.466,0c-.4,0-.659-.225-.665-.553s.248-.556.649-.561c.584-.007,1.168,0,1.752,0" transform="translate(-229.426 -249.271)" fill="#fff"/>
<path id="Caminho_56" data-name="Caminho 56" d="M262.972,217.478c.509,0,1.018-.006,1.527,0,.4.006.615.205.622.539s-.225.57-.633.573q-1.527.011-3.055,0c-.4,0-.651-.232-.648-.565s.247-.543.659-.548c.509-.006,1.018,0,1.527,0" transform="translate(-241.315 -201.239)" fill="#fff"/>
<path id="Caminho_57" data-name="Caminho 57" d="M61.14,300.612c-.509,0-1.018.005-1.528,0a.559.559,0,1,1-.02-1.113q1.565-.012,3.13,0a.559.559,0,1,1-.017,1.113c-.522.007-1.043,0-1.565,0" transform="translate(-54.587 -277.131)" fill="#fff"/>
<path id="Caminho_58" data-name="Caminho 58" d="M61.15,101.411c-.509,0-1.018.007-1.527,0-.4-.007-.618-.2-.626-.537a.538.538,0,0,1,.6-.569q1.564-.02,3.128,0a.542.542,0,0,1,.608.56c0,.334-.221.54-.615.548-.521.01-1.043,0-1.564,0" transform="translate(-54.592 -92.804)" fill="#fff"/>
<path id="Caminho_59" data-name="Caminho 59" d="M47.934,179.265c-.4,0-.793.008-1.189,0s-.62-.214-.629-.537a.552.552,0,0,1,.6-.57q1.244-.021,2.489,0a.554.554,0,1,1-.007,1.105c-.421.012-.842,0-1.263,0" transform="translate(-42.673 -164.845)" fill="#fff"/>
</g>
</svg>