<svg xmlns="http://www.w3.org/2000/svg" xmlns:xlink="http://www.w3.org/1999/xlink" width="36.691" height="46.557" viewBox="0 0 36.691 46.557">
<defs>
<clipPath id="clip-path">
<rect id="Retângulo_16" data-name="Retângulo 16" width="36.691" height="46.557" fill="none"/>
</clipPath>
</defs>
<g id="Grupo_3" data-name="Grupo 3" clip-path="url(#clip-path)">
<path id="Caminho_12" data-name="Caminho 12" d="M22.245,0c.363.1.733.173,1.086.3a4.883,4.883,0,0,1,2.284,1.579,4.03,4.03,0,0,0,2.636,1.519A5.19,5.19,0,0,1,32.489,7.7a3.891,3.891,0,0,0,1.386,2.468,5.2,5.2,0,0,1,1.609,6.06,3.8,3.8,0,0,0,0,2.7,5.233,5.233,0,0,1-1.671,6.123A3.3,3.3,0,0,0,32.568,27.1,5.6,5.6,0,0,1,30.7,30.616c.085.155.161.3.243.44l5.39,9.361c.068.118.137.235.2.354a.916.916,0,0,1-1.061,1.367c-1.559-.423-3.121-.838-4.681-1.255-.1-.027-.2-.045-.353-.077l-.84,3.109c-.146.54-.317,1.075-.428,1.623a1.51,1.51,0,0,1-.668,1.019h-.544a4.364,4.364,0,0,1-.7-.738c-1.992-3.427-3.963-6.866-5.949-10.3a.934.934,0,0,0-.43-.4c-.452-.162-.934-.241-1.39-.394a3.587,3.587,0,0,0-2.4.012,5.536,5.536,0,0,1-1.083.317.842.842,0,0,0-.674.5q-2.947,5.139-5.919,10.262a4.367,4.367,0,0,1-.7.738H8.178a1.6,1.6,0,0,1-.669-1.018c-.4-1.567-.831-3.124-1.266-4.74-.568.148-1.117.289-1.664.435-1.079.288-2.16.57-3.235.873A.973.973,0,0,1,.2,41.837a1,1,0,0,1,.037-1.221c1.84-3.182,3.667-6.37,5.514-9.548.173-.3.187-.463-.084-.716A5.1,5.1,0,0,1,4.1,27.3a3.278,3.278,0,0,0-1.243-2.2A5.368,5.368,0,0,1,1.19,18.775a3.119,3.119,0,0,0,0-2.4A5.378,5.378,0,0,1,2.9,10.025,3.235,3.235,0,0,0,4.1,7.9,5.24,5.24,0,0,1,8.618,3.35,3.479,3.479,0,0,0,10.813,2.1,5.291,5.291,0,0,1,14.235.065.385.385,0,0,0,14.35,0h1.361a15.7,15.7,0,0,0,1.809.53,4.619,4.619,0,0,0,1.56,0A15.13,15.13,0,0,0,20.884,0ZM34.056,14.509a3.475,3.475,0,0,0-1.205-2.825,5.828,5.828,0,0,1-2.178-3.8A3.291,3.291,0,0,0,27.992,5.2,5.843,5.843,0,0,1,24.23,3.054,3.289,3.289,0,0,0,20.416,2.04a5.69,5.69,0,0,1-4.2,0,3.317,3.317,0,0,0-3.847,1.037A5.7,5.7,0,0,1,8.777,5.173,3.37,3.37,0,0,0,5.909,8.1a5.428,5.428,0,0,1-1.923,3.4,3.429,3.429,0,0,0-1.109,4.187,5.411,5.411,0,0,1,0,3.777,3.437,3.437,0,0,0,1.134,4.221A5.4,5.4,0,0,1,5.9,27a3.42,3.42,0,0,0,3,3.012,5.022,5.022,0,0,1,3.243,1.827,3.621,3.621,0,0,0,4.372,1.185,4.99,4.99,0,0,1,3.679.018A3.426,3.426,0,0,0,24.38,31.94a5.4,5.4,0,0,1,3.252-1.909,3.458,3.458,0,0,0,3.126-3.157,5.226,5.226,0,0,1,1.82-3.155,3.47,3.47,0,0,0,1.158-4.3,5.312,5.312,0,0,1,0-3.687,12.438,12.438,0,0,0,.323-1.227M33.9,39.824l-4.754-8.25c-.48.1-.908.183-1.335.275a3.039,3.039,0,0,0-1.76.965,6.085,6.085,0,0,1-2.963,2.133l4.741,8.225c.072-.029.094-.032.1-.04q.46-1.685.918-3.37c.254-.932.591-1.127,1.514-.88,1.148.307,2.3.611,3.542.942M7.533,31.589,2.827,39.76c.069.025.085.036.1.033,1.166-.313,2.331-.629,3.5-.94.8-.212,1.186.02,1.4.825L8.8,43.284l4.8-8.322a5.93,5.93,0,0,1-2.953-2.087,3.059,3.059,0,0,0-1.78-1.016c-.425-.093-.853-.174-1.326-.27" transform="translate(0)" fill="#fff"/>
<path id="Caminho_13" data-name="Caminho 13" d="M53.783,67.407a11.9,11.9,0,0,1,7.142-10.823c.111-.048.223-.093.338-.131a.9.9,0,0,1,1.162.5.882.882,0,0,1-.442,1.152c-.442.23-.908.414-1.342.658a9.991,9.991,0,1,0,14.914,8.059,9.677,9.677,0,0,0-5.966-8.552c-.1-.045-.2-.081-.29-.127A.906.906,0,1,1,70,56.47a10.865,10.865,0,0,1,3.975,2.641,11.408,11.408,0,0,1,2.914,11.7,11.293,11.293,0,0,1-8.744,8.167A11.776,11.776,0,0,1,53.883,68.719c-.045-.436-.067-.875-.1-1.313" transform="translate(-47.262 -49.555)" fill="#fff"/>
<path id="Caminho_14" data-name="Caminho 14" d="M97.787,102.173a2.6,2.6,0,0,1,.289-.473q1.691-1.713,3.4-3.41a.954.954,0,0,1,1.565-.007q1.289,1.281,2.566,2.573a.941.941,0,0,1-.012,1.532q-3.558,3.571-7.123,7.136a.932.932,0,0,1-1.528,0q-2.539-2.535-5.069-5.08a.928.928,0,0,1,.006-1.5q1.309-1.324,2.631-2.636a.914.914,0,0,1,1.433-.012c.583.571,1.146,1.163,1.843,1.874m-2.49.034L93.809,103.7l3.87,3.886,5.955-5.966-1.459-1.468c-1.2,1.209-2.44,2.455-3.682,3.7a.953.953,0,0,1-1.564.01c-.547-.544-1.086-1.1-1.633-1.648" transform="translate(-80.403 -86.01)" fill="#fff"/>
<path id="Caminho_15" data-name="Caminho 15" d="M144.743,50.121a.893.893,0,0,1,.894.895.9.9,0,1,1-1.809-.021.892.892,0,0,1,.915-.874" transform="translate(-126.39 -44.044)" fill="#fff"/>
</g>
</svg>